<svg width="180" height="180" viewBox="0 0 180 180" fill="none" xmlns="http://www.w3.org/2000/svg">
<path d="M136.819 145.615L118.75 89.9972L166.049 55.6327H107.582L89.5117 0.0157231L89.506 0.000628924H147.982L166.057 55.6265L166.058 55.6252L166.073 55.617C176.57 87.8871 165.759 124.591 136.819 145.615V145.615ZM42.1995 145.615L42.1851 145.626L89.4966 180L136.819 145.617L89.5117 111.242L42.2001 145.615H42.1995ZM12.9584 55.6183C1.90851 89.6355 14.7351 125.68 42.1907 145.622L42.1951 145.605L60.2668 89.9896L12.9779 55.6315H71.4312L89.5022 0.0150942L89.506 0H31.027L12.9578 55.6183H12.9584Z" fill="#EB5424"/>
</svg>
