<svg width="181" height="181" viewBox="0 0 181 181" fill="none" xmlns="http://www.w3.org/2000/svg">
<path fill-rule="evenodd" clip-rule="evenodd" d="M37.3866 18C27.116 18 19.5163 27.0277 19.8566 36.818C20.1832 46.2239 19.7589 58.4058 16.7052 68.3402C13.6406 78.3024 8.46141 84.6155 0 85.4258V94.5742C8.46141 95.3863 13.6406 101.696 16.7048 111.66C19.7589 121.594 20.1829 133.776 19.8562 143.182C19.5159 152.971 27.1157 162 37.388 162H142.627C152.898 162 160.496 152.972 160.156 143.182C159.829 133.776 160.253 121.594 163.307 111.66C166.372 101.696 171.538 95.3838 180 94.5742V85.4258C171.539 84.6137 166.372 78.3039 163.307 68.3402C160.253 58.4072 159.829 46.2239 160.156 36.818C160.496 27.0291 152.898 18 142.627 18H37.3852H37.3866ZM122.034 106.641C122.034 120.122 112.021 128.298 95.4046 128.298H67.1186C66.3094 128.298 65.5334 127.975 64.9613 127.401C64.3891 126.826 64.0677 126.047 64.0677 125.234V54.7661C64.0677 53.9536 64.3891 53.1743 64.9613 52.5997C65.5334 52.0251 66.3094 51.7023 67.1186 51.7023H95.2436C109.099 51.7023 118.192 59.2394 118.192 70.8112C118.192 78.9334 112.075 86.2046 104.282 87.4784V87.9021C114.891 89.0707 122.034 96.4497 122.034 106.641V106.641ZM92.3203 61.4146H76.192V84.2928H89.7761C100.277 84.2928 106.067 80.0462 106.067 72.4558C106.066 65.3424 101.088 61.4146 92.3203 61.4146ZM76.192 93.3703V118.583H92.9137C103.847 118.583 109.639 114.177 109.639 105.897C109.639 97.6169 103.685 93.3689 92.2106 93.3689H76.192V93.3703Z" fill="#7952B3"/>
</svg>
