<svg width="180" height="180" viewBox="0 0 180 180" fill="none" xmlns="http://www.w3.org/2000/svg">
<path d="M107.644 116.491L63.4985 107.266C63.3137 107.624 63.108 107.97 62.8826 108.303L103.071 166.928L105.495 164.506L112.333 121.989C111.177 121.501 110.151 120.749 109.337 119.795C108.523 118.84 107.944 117.709 107.644 116.491V116.491ZM91.5398 58.7839C89.8861 61.3207 87.0314 62.9997 83.7802 62.9997C83.2795 62.9997 82.793 62.9491 82.3148 62.8732L62.1823 94.3734L115.97 71.2269C115.953 71.0103 115.905 70.8078 115.905 70.5856C115.905 70.1328 115.967 69.6941 116.04 69.2609L91.5398 58.7846V58.7839ZM93.0023 53.0436L119.064 64.1866C119.894 63.5374 120.844 63.0577 121.859 62.7747L126.143 36.1408L109.824 19.8222L91.4555 48.5641C92.3557 49.8957 92.8892 51.441 93.0023 53.0443V53.0436ZM147.611 57.6082L131.256 41.251L127.701 63.3344C128.602 63.7875 129.412 64.4035 130.089 65.1513L147.611 57.6082ZM108.426 110.674C109.066 109.512 109.986 108.528 111.101 107.811C112.217 107.094 113.494 106.665 114.817 106.565L119.514 77.3524C119.145 77.1077 118.816 76.8152 118.493 76.5143L64.3957 99.7958C64.5335 100.361 64.6291 100.938 64.6741 101.537L108.426 110.674ZM152.066 62.066L133.143 70.208L179.831 90.1688L180 90L152.066 62.066ZM118.251 122.077L112.564 157.432L145.586 124.411L121.8 119.444C120.888 120.638 119.658 121.55 118.251 122.077ZM54.0654 112.987C52.8701 112.987 51.7254 112.782 50.6538 112.418L39.6851 129.583L35.4466 125.348L45.836 109.092C45.5791 108.773 45.3397 108.44 45.1188 108.095L26.2976 116.199L21.8363 111.737L42.4378 102.87L5.19258 95.0962L0.0984375 90L1.71 88.3885L44.6604 97.3546C45.1543 96.4176 45.7867 95.5605 46.5363 94.8121L25.6901 64.4059L29.9004 60.1957L51.6797 91.9659C52.4618 91.7843 53.2618 91.6909 54.0647 91.6875C54.9844 91.6875 55.8759 91.8168 56.7281 92.0362L77.1082 60.1479C75.449 58.4268 74.5224 56.1289 74.5235 53.7383C74.5235 53.0071 74.6163 52.2983 74.7766 51.6177L49.3516 40.7476L53.8116 36.287L77.9006 46.589C79.1221 45.5823 80.5822 44.9068 82.1403 44.6275C83.6984 44.3482 85.3021 44.4746 86.7973 44.9944L105.588 15.5866L90.0014 0L0 90L90.0014 180L98.858 171.144L58.3685 112.075C57.0134 112.676 55.5477 112.986 54.0654 112.987ZM125.243 78.6117L120.464 108.309C121.299 108.98 121.991 109.812 122.498 110.756C123.005 111.7 123.316 112.736 123.415 113.803L150.536 119.464L175.37 94.63L130.544 75.4652C129.262 77.1728 127.356 78.304 125.243 78.6124V78.6117Z" fill="#25C7B7"/>
</svg>
