<svg width="180" height="180" viewBox="0 0 180 180" fill="none" xmlns="http://www.w3.org/2000/svg">
<path d="M82.3013 1.92035C86.7645 -0.634343 92.5778 -0.645882 97.0371 1.92035C119.472 14.597 141.913 27.2538 164.344 39.9381C168.563 42.3146 171.385 47.0098 171.342 51.8711V128.139C171.373 133.201 168.272 138.009 163.821 140.331C141.46 152.938 119.111 165.56 96.7544 178.167C92.1989 180.772 86.2689 180.571 81.8558 177.753C75.152 173.867 68.4367 170 61.7324 166.117C60.3624 165.301 58.818 164.651 57.8506 163.322C58.7058 162.17 60.2348 162.026 61.4772 161.523C64.2755 160.633 66.8456 159.205 69.4163 157.819C70.0664 157.374 70.86 157.544 71.4831 157.942C77.2156 161.229 82.8975 164.611 88.6492 167.867C89.8763 168.575 91.1187 167.635 92.1675 167.05C114.11 154.648 136.08 142.294 158.019 129.888C158.832 129.497 159.281 128.634 159.215 127.744C159.23 102.585 159.219 77.4212 159.223 52.2621C159.316 51.2518 158.731 50.3229 157.818 49.9094C135.534 37.3603 113.263 24.792 90.9834 12.2398C90.5974 11.9744 90.1401 11.832 89.6717 11.8313C89.2033 11.8306 88.7456 11.9717 88.3588 12.2359C66.0795 24.792 43.8117 37.3719 21.5324 49.9203C20.6221 50.3344 20.0111 51.248 20.1195 52.2621C20.1233 77.4212 20.1195 102.585 20.1195 127.748C20.0808 128.182 20.1763 128.618 20.3929 128.997C20.6095 129.375 20.9369 129.678 21.3311 129.865C27.2764 133.236 33.2295 136.584 39.1787 139.944C42.5302 141.748 46.6453 142.82 50.3379 141.438C53.5965 140.269 55.8806 136.944 55.8184 133.484C55.8492 108.472 55.8031 83.4556 55.8415 58.4473C55.7601 57.3369 56.8134 56.4195 57.893 56.524C60.7496 56.5048 63.6101 56.4856 66.4667 56.5317C67.6591 56.5048 68.4797 57.7004 68.3322 58.8191C68.3207 83.9897 68.363 109.161 68.313 134.331C68.3207 141.04 65.5647 148.339 59.3597 151.621C51.7156 155.581 42.2674 154.741 34.7155 150.944C28.1778 147.681 21.9388 143.83 15.5172 140.334C11.0546 138.025 7.96914 133.198 8.00055 128.139V51.8711C7.95375 46.9092 10.888 42.1287 15.2383 39.7868C37.5952 27.1698 59.9483 14.5431 82.3013 1.92035Z" fill="#8CC84B"/>
<path d="M101.805 54.7513C111.556 54.1237 121.995 54.3795 130.769 59.183C137.563 62.8641 141.329 70.5897 141.449 78.1371C141.259 79.1551 140.195 79.7167 139.223 79.6468C136.394 79.643 133.564 79.6853 130.735 79.6276C129.535 79.6738 128.838 78.5673 128.687 77.5063C127.874 73.8951 125.905 70.3185 122.506 68.5767C117.288 65.9643 111.238 66.0958 105.549 66.1503C101.395 66.3708 96.9287 66.7304 93.4098 69.1729C90.7083 71.0231 89.8877 74.758 90.8519 77.7659C91.761 79.9257 94.2541 80.6226 96.294 81.2649C108.045 84.3382 120.497 84.0324 132.024 88.077C136.796 89.7258 141.464 92.9312 143.098 97.9278C145.234 104.624 144.298 112.629 139.533 118.005C135.67 122.429 130.042 124.837 124.43 126.145C116.963 127.81 109.214 127.852 101.632 127.113C94.5016 126.3 87.0818 124.427 81.5775 119.569C76.8707 115.482 74.5718 109.114 74.8 102.968C74.8545 101.93 75.8879 101.206 76.8822 101.292C79.7312 101.268 82.5801 101.261 85.4291 101.295C86.567 101.214 87.4106 102.197 87.469 103.27C87.9946 106.711 89.2877 110.322 92.2879 112.362C98.0781 116.097 105.343 115.841 111.973 115.946C117.466 115.702 123.632 115.629 128.114 111.998C130.479 109.927 131.18 106.463 130.541 103.483C129.849 100.966 127.216 99.7939 124.956 99.0272C113.356 95.3577 100.764 96.6892 89.2762 92.5395C84.6123 90.8913 80.1024 87.775 78.3105 82.9836C75.8103 76.2023 76.956 67.8145 82.2198 62.6199C87.3523 57.4528 94.7612 55.4629 101.805 54.7506V54.7513Z" fill="#8CC84B"/>
</svg>
