<svg width="180" height="180" viewBox="0 0 180 180" fill="none" xmlns="http://www.w3.org/2000/svg">
<path d="M132.857 34.2856H141.428C143.828 34.2856 145.714 36.1714 145.714 38.5713C145.714 40.9713 143.828 42.857 141.428 42.857H132.857C130.457 42.857 128.571 40.9713 128.571 38.5713C128.571 36.1714 130.457 34.2856 132.857 34.2856Z" fill="#56B3B4"/>
<path d="M4.2857 171.429H47.1427C49.5427 171.429 51.4284 173.314 51.4284 175.714C51.4284 178.114 49.5427 180 47.1427 180H4.2857C1.88571 180 0 178.114 0 175.714C0 173.314 1.88571 171.429 4.2857 171.429Z" fill="#EA5E5E"/>
<path d="M107.143 102.857H132.857C135.257 102.857 137.143 104.743 137.143 107.143C137.143 109.543 135.257 111.428 132.857 111.428H107.143C104.743 111.428 102.857 109.543 102.857 107.143C102.857 104.743 104.743 102.857 107.143 102.857Z" fill="#BF85BF"/>
<path d="M55.7144 102.857H90.0002C92.4002 102.857 94.2859 104.743 94.2859 107.143C94.2859 109.543 92.4002 111.428 90.0002 111.428H55.7144C53.3144 111.428 51.4287 109.543 51.4287 107.143C51.4287 104.743 53.3144 102.857 55.7144 102.857Z" fill="#EA5E5E"/>
<path d="M4.28571 102.857H38.5714C40.9714 102.857 42.8571 104.743 42.8571 107.143C42.8571 109.543 40.9714 111.428 38.5714 111.428H4.28571C1.88571 111.428 0 109.543 0 107.143C0 104.743 1.88571 102.857 4.28571 102.857Z" fill="#56B3B4"/>
<path d="M4.2857 137.143H47.1427C49.5427 137.143 51.4284 139.028 51.4284 141.428C51.4284 143.828 49.5427 145.714 47.1427 145.714H4.2857C1.88571 145.714 0 143.828 0 141.428C0 139.028 1.88571 137.143 4.2857 137.143Z" fill="#BF85BF"/>
<path d="M4.2857 68.5713H47.1427C49.5427 68.5713 51.4284 70.457 51.4284 72.8571C51.4284 75.2571 49.5427 77.1428 47.1427 77.1428H4.2857C1.88571 77.1428 0 75.2571 0 72.8571C0 70.457 1.88571 68.5713 4.2857 68.5713Z" fill="#BF85BF"/>
<path d="M47.1429 17.1431H132.857C135.257 17.1431 137.143 19.0288 137.143 21.4288C137.143 23.8288 135.257 25.7145 132.857 25.7145H47.1429C44.7429 25.7145 42.8572 23.8288 42.8572 21.4288C42.8572 19.0288 44.7429 17.1431 47.1429 17.1431Z" fill="#F7BA3E"/>
<path d="M4.28571 17.1431H29.9999C32.3999 17.1431 34.2857 19.0288 34.2857 21.4288C34.2857 23.8288 32.3999 25.7145 29.9999 25.7145H4.28571C1.88571 25.7145 0 23.8288 0 21.4288C0 19.0288 1.88571 17.1431 4.28571 17.1431Z" fill="#EA5E5E"/>
<path d="M38.5714 154.286H47.1428C49.5429 154.286 51.4286 156.171 51.4286 158.571C51.4286 160.971 49.5429 162.857 47.1428 162.857H38.5714C36.1714 162.857 34.2856 160.971 34.2856 158.571C34.2856 156.171 36.1714 154.286 38.5714 154.286Z" fill="#F7BA3E"/>
<path d="M38.5714 51.4287H47.1428C49.5429 51.4287 51.4286 53.3144 51.4286 55.7143C51.4286 58.1143 49.5429 59.9999 47.1428 59.9999H38.5714C36.1714 59.9999 34.2856 58.1143 34.2856 55.7143C34.2856 53.3144 36.1714 51.4287 38.5714 51.4287Z" fill="#56B3B4"/>
<path d="M4.28572 154.286H21.4286C23.8286 154.286 25.7143 156.171 25.7143 158.571C25.7143 160.971 23.8286 162.857 21.4286 162.857H4.28572C1.88571 162.857 0 160.971 0 158.571C0 156.171 1.88571 154.286 4.28572 154.286Z" fill="#56B3B4"/>
<path d="M4.28572 51.4287H21.4286C23.8286 51.4287 25.7143 53.3144 25.7143 55.7143C25.7143 58.1143 23.8286 59.9999 21.4286 59.9999H4.28572C1.88571 59.9999 0 58.1143 0 55.7143C0 53.3144 1.88571 51.4287 4.28572 51.4287Z" fill="#F7BA3E"/>
<path opacity="0.5" d="M115.714 154.286H124.286C126.686 154.286 128.571 156.171 128.571 158.571C128.571 160.971 126.686 162.857 124.286 162.857H115.714C113.314 162.857 111.429 160.971 111.429 158.571C111.429 156.171 113.314 154.286 115.714 154.286Z" fill="#D0D4D8"/>
<path opacity="0.5" d="M64.2855 154.286H98.5713C100.971 154.286 102.857 156.171 102.857 158.571C102.857 160.971 100.971 162.857 98.5713 162.857H64.2855C61.8855 162.857 59.9998 160.971 59.9998 158.571C59.9998 156.171 61.8855 154.286 64.2855 154.286Z" fill="#D0D4D8"/>
<path opacity="0.5" d="M141.428 154.286H175.714C178.114 154.286 180 156.171 180 158.571C180 160.971 178.114 162.857 175.714 162.857H141.428C139.028 162.857 137.143 160.971 137.143 158.571C137.143 156.171 139.028 154.286 141.428 154.286Z" fill="#D0D4D8"/>
<path d="M72.857 85.7144H141.428C143.828 85.7144 145.714 87.6 145.714 90C145.714 92.3999 143.828 94.2856 141.428 94.2856H72.857C70.457 94.2856 68.5713 92.3999 68.5713 90C68.5713 87.6 70.457 85.7144 72.857 85.7144Z" fill="#56B3B4"/>
<path d="M29.9998 85.7144H55.7141C58.1141 85.7144 59.9998 87.6 59.9998 90C59.9998 92.3999 58.1141 94.2856 55.7141 94.2856H29.9998C27.5998 94.2856 25.7141 92.3999 25.7141 90C25.7141 87.6 27.5998 85.7144 29.9998 85.7144Z" fill="#F7BA3E"/>
<path d="M4.28571 85.7144H12.8571C15.2571 85.7144 17.1428 87.6 17.1428 90C17.1428 92.3999 15.2571 94.2856 12.8571 94.2856H4.28571C1.88571 94.2856 0 92.3999 0 90C0 87.6 1.88571 85.7144 4.28571 85.7144Z" fill="#EA5E5E"/>
<path d="M81.4285 34.2856H115.714C118.114 34.2856 120 36.1714 120 38.5713C120 40.9713 118.114 42.857 115.714 42.857H81.4285C79.0285 42.857 77.1428 40.9713 77.1428 38.5713C77.1428 36.1714 79.0285 34.2856 81.4285 34.2856Z" fill="#BF85BF"/>
<path d="M4.2857 34.2856H64.2856C66.6856 34.2856 68.5713 36.1714 68.5713 38.5713C68.5713 40.9713 66.6856 42.857 64.2856 42.857H4.2857C1.88571 42.857 0 40.9713 0 38.5713C0 36.1714 1.88571 34.2856 4.2857 34.2856Z" fill="#56B3B4"/>
<path d="M29.9998 120H107.143C109.543 120 111.428 121.885 111.428 124.285C111.428 126.685 109.543 128.571 107.143 128.571H29.9998C27.5998 128.571 25.7141 126.685 25.7141 124.285C25.7141 121.885 27.5998 120 29.9998 120Z" fill="#F7BA3E"/>
<path d="M4.28571 120H12.8571C15.2571 120 17.1428 121.885 17.1428 124.285C17.1428 126.685 15.2571 128.571 12.8571 128.571H4.28571C1.88571 128.571 0 126.685 0 124.285C0 121.885 1.88571 120 4.28571 120Z" fill="#BF85BF"/>
<path d="M107.143 51.4287H150C152.4 51.4287 154.285 53.3144 154.285 55.7143C154.285 58.1143 152.4 59.9999 150 59.9999H107.143C104.743 59.9999 102.857 58.1143 102.857 55.7143C102.857 53.3144 104.743 51.4287 107.143 51.4287Z" fill="#EA5E5E"/>
<path d="M107.143 68.5713H150C152.4 68.5713 154.285 70.457 154.285 72.8571C154.285 75.2571 152.4 77.1428 150 77.1428H107.143C104.743 77.1428 102.857 75.2571 102.857 72.8571C102.857 70.457 104.743 68.5713 107.143 68.5713Z" fill="#F7BA3E"/>
<path d="M4.28571 0H107.143C109.543 0 111.428 1.88571 111.428 4.28571C111.428 6.68571 109.543 8.57142 107.143 8.57142H4.28571C1.88571 8.57142 0 6.68571 0 4.28571C0 1.88571 1.88571 0 4.28571 0Z" fill="#56B3B4"/>
<path opacity="0.5" d="M124.286 0H175.714C178.114 0 180 1.88571 180 4.28571C180 6.68571 178.114 8.57142 175.714 8.57142H124.286C121.886 8.57142 120 6.68571 120 4.28571C120 1.88571 121.886 0 124.286 0Z" fill="#D0D4D8"/>
<path opacity="0.5" d="M124.286 120H141.428C143.828 120 145.714 121.885 145.714 124.285C145.714 126.685 143.828 128.571 141.428 128.571H124.286C121.886 128.571 120 126.685 120 124.285C120 121.885 121.886 120 124.286 120Z" fill="#D0D4D8"/>
<path opacity="0.5" d="M158.571 120H175.714C178.114 120 180 121.885 180 124.285C180 126.685 178.114 128.571 175.714 128.571H158.571C156.171 128.571 154.286 126.685 154.286 124.285C154.286 121.885 156.171 120 158.571 120Z" fill="#D0D4D8"/>
<path opacity="0.5" d="M150 102.857H175.714C178.114 102.857 180 104.743 180 107.143C180 109.543 178.114 111.428 175.714 111.428H150C147.6 111.428 145.714 109.543 145.714 107.143C145.714 104.743 147.6 102.857 150 102.857Z" fill="#D0D4D8"/>
<path opacity="0.5" d="M150 17.1431H175.714C178.114 17.1431 180 19.0288 180 21.4288C180 23.8288 178.114 25.7145 175.714 25.7145H150C147.6 25.7145 145.714 23.8288 145.714 21.4288C145.714 19.0288 147.6 17.1431 150 17.1431Z" fill="#D0D4D8"/>
<path opacity="0.5" d="M158.571 85.7144H175.714C178.114 85.7144 180 87.6 180 90C180 92.3999 178.114 94.2856 175.714 94.2856H158.571C156.171 94.2856 154.286 92.3999 154.286 90C154.286 87.6 156.171 85.7144 158.571 85.7144Z" fill="#D0D4D8"/>
<path opacity="0.5" d="M158.571 34.2856H175.714C178.114 34.2856 180 36.1714 180 38.5713C180 40.9713 178.114 42.857 175.714 42.857H158.571C156.171 42.857 154.286 40.9713 154.286 38.5713C154.286 36.1714 156.171 34.2856 158.571 34.2856Z" fill="#D0D4D8"/>
<path opacity="0.5" d="M167.143 51.4287H175.714C178.114 51.4287 180 53.3144 180 55.7143C180 58.1143 178.114 59.9999 175.714 59.9999H167.143C164.743 59.9999 162.857 58.1143 162.857 55.7143C162.857 53.3144 164.743 51.4287 167.143 51.4287Z" fill="#D0D4D8"/>
<path opacity="0.5" d="M167.143 68.5713H175.714C178.114 68.5713 180 70.457 180 72.8571C180 75.2571 178.114 77.1428 175.714 77.1428H167.143C164.743 77.1428 162.857 75.2571 162.857 72.8571C162.857 70.457 164.743 68.5713 167.143 68.5713Z" fill="#D0D4D8"/>
<path opacity="0.5" d="M98.5716 137.143H175.714C178.114 137.143 180 139.028 180 141.428C180 143.828 178.114 145.714 175.714 145.714H98.5716C96.1716 145.714 94.2859 143.828 94.2859 141.428C94.2859 139.028 96.1716 137.143 98.5716 137.143Z" fill="#D0D4D8"/>
<path opacity="0.5" d="M64.2855 137.143H81.4283C83.8283 137.143 85.714 139.028 85.714 141.428C85.714 143.828 83.8283 145.714 81.4283 145.714H64.2855C61.8855 145.714 59.9998 143.828 59.9998 141.428C59.9998 139.028 61.8855 137.143 64.2855 137.143Z" fill="#D0D4D8"/>
<path opacity="0.5" d="M132.857 171.429H175.714C178.114 171.429 180 173.314 180 175.714C180 178.114 178.114 180 175.714 180H132.857C130.457 180 128.571 178.114 128.571 175.714C128.571 173.314 130.457 171.429 132.857 171.429Z" fill="#D0D4D8"/>
<path opacity="0.5" d="M64.2855 171.429H115.714C118.114 171.429 120 173.314 120 175.714C120 178.114 118.114 180 115.714 180H64.2855C61.8855 180 59.9998 178.114 59.9998 175.714C59.9998 173.314 61.8855 171.429 64.2855 171.429Z" fill="#D0D4D8"/>
<path opacity="0.5" d="M64.2855 51.4287H89.9999C92.3999 51.4287 94.2856 53.3144 94.2856 55.7143C94.2856 58.1143 92.3999 59.9999 89.9999 59.9999H64.2855C61.8855 59.9999 59.9998 58.1143 59.9998 55.7143C59.9998 53.3144 61.8855 51.4287 64.2855 51.4287Z" fill="#D0D4D8"/>
<path opacity="0.5" d="M64.2855 68.5713H89.9999C92.3999 68.5713 94.2856 70.457 94.2856 72.8571C94.2856 75.2571 92.3999 77.1428 89.9999 77.1428H64.2855C61.8855 77.1428 59.9998 75.2571 59.9998 72.8571C59.9998 70.457 61.8855 68.5713 64.2855 68.5713Z" fill="#D0D4D8"/>
</svg>
