<svg width="180" height="180" viewBox="0 0 180 180" fill="none" xmlns="http://www.w3.org/2000/svg">
<path d="M154.994 100.606C148.714 100.639 143.257 102.152 138.687 104.387C137.01 101.067 135.333 98.1073 135.037 95.9372C134.709 93.4054 134.314 91.8601 134.709 88.8351C135.103 85.8101 136.878 81.5028 136.846 81.174C136.813 80.8452 136.451 79.2998 132.835 79.2669C129.218 79.234 126.095 79.9574 125.733 80.9109C125.371 81.8644 124.681 84.0345 124.221 86.2704C123.596 89.5584 116.987 101.297 113.207 107.445C111.99 105.045 110.938 102.941 110.708 101.264C110.379 98.732 109.985 97.1867 110.379 94.1617C110.774 91.1367 112.549 86.8294 112.516 86.5006C112.483 86.1718 112.122 84.6264 108.505 84.5935C104.888 84.5606 101.765 85.284 101.403 86.2375C101.042 87.1911 100.647 89.4269 99.8911 91.597C99.1349 93.7671 90.3565 113.364 88.0551 118.427C86.8715 121.025 85.8523 123.096 85.129 124.51C85.129 124.51 85.0961 124.609 84.9975 124.773C84.3728 125.99 84.0111 126.647 84.0111 126.647C84.0111 126.647 84.0111 126.647 84.0111 126.68C83.518 127.568 82.9919 128.39 82.7289 128.39C82.5316 128.39 82.17 126.023 82.7947 122.8C84.1098 115.994 87.2332 105.407 87.2003 105.045C87.2003 104.848 87.7921 103.006 85.1618 102.053C82.5974 101.099 81.6768 102.678 81.4467 102.678C81.2165 102.678 81.0521 103.237 81.0521 103.237C81.0521 103.237 83.9125 91.334 75.5944 91.334C70.3998 91.334 63.2324 97.0223 59.6816 102.152C57.446 103.368 52.6787 105.966 47.5826 108.761C45.6429 109.846 43.6373 110.931 41.7633 111.95C41.6318 111.818 41.5003 111.654 41.3688 111.522C31.3082 100.771 12.6994 93.1753 13.4885 78.7408C13.7844 73.48 15.5926 59.6702 49.2265 42.9013C76.9095 29.2559 98.9376 33.0372 102.751 41.4217C108.209 53.3901 90.9483 75.6172 62.3447 78.8395C51.4293 80.056 45.7086 75.8473 44.262 74.2691C42.7496 72.6251 42.5195 72.5264 41.9606 72.8552C41.04 73.3484 41.6318 74.8281 41.9606 75.6829C42.8154 77.9188 46.3333 81.8644 52.2842 83.8044C57.5446 85.5142 70.334 86.4677 85.8194 80.4835C103.146 73.7759 116.692 55.1327 112.713 39.5146C108.735 23.6663 82.433 18.4383 57.5446 27.2831C42.7496 32.544 26.7053 40.8298 15.1652 51.6145C1.45524 64.4379 -0.714689 75.5843 0.173009 80.2533C3.36215 96.825 26.2121 107.61 35.3521 115.6C34.8919 115.863 34.4644 116.093 34.1028 116.29C29.5328 118.559 12.1076 127.667 7.76776 137.301C2.8361 148.217 8.55682 156.042 12.3378 157.095C24.0751 160.35 36.1412 154.497 42.6181 144.83C49.095 135.163 48.306 122.603 45.3141 116.849C45.2812 116.783 45.2483 116.718 45.1826 116.652C46.3662 115.961 47.5826 115.238 48.7662 114.547C51.1006 113.167 53.402 111.884 55.3747 110.832C54.2568 113.89 53.4349 117.54 53.0403 122.8C52.5472 128.982 55.0788 137.005 58.3994 140.161C59.8789 141.542 61.6214 141.575 62.7393 141.575C66.6188 141.575 68.3614 138.353 70.3011 134.539C72.6683 129.87 74.8054 124.444 74.8054 124.444C74.8054 124.444 72.1423 139.109 79.3754 139.109C82.0056 139.109 84.6687 135.69 85.8523 133.947C85.8523 133.98 85.8523 133.98 85.8523 133.98C85.8523 133.98 85.918 133.881 86.0496 133.651C86.3126 133.224 86.477 132.96 86.477 132.96C86.477 132.96 86.477 132.928 86.477 132.895C87.5291 131.053 89.8962 126.878 93.4142 119.94C97.9513 110.996 102.324 99.8171 102.324 99.8171C102.324 99.8171 102.719 102.546 104.067 107.084C104.856 109.747 106.499 112.673 107.815 115.501C106.762 116.981 106.105 117.803 106.105 117.803C106.105 117.803 106.105 117.803 106.138 117.836C105.283 118.953 104.362 120.17 103.343 121.354C99.7595 125.628 95.4855 130.527 94.8937 131.941C94.2032 133.618 94.3676 134.835 95.6827 135.821C96.6362 136.544 98.3458 136.643 100.088 136.544C103.31 136.314 105.579 135.525 106.697 135.032C108.439 134.407 110.478 133.454 112.385 132.04C115.902 129.442 118.04 125.727 117.842 120.828C117.744 118.131 116.856 115.435 115.771 112.903C116.1 112.443 116.396 111.983 116.724 111.522C122.281 103.401 126.588 94.4905 126.588 94.4905C126.588 94.4905 126.982 97.2196 128.33 101.757C128.988 104.059 130.336 106.558 131.519 108.991C126.292 113.232 123.07 118.164 121.919 121.387C119.848 127.371 121.459 130.067 124.516 130.692C125.897 130.988 127.87 130.33 129.317 129.705C131.158 129.113 133.328 128.094 135.399 126.582C138.917 123.984 142.303 120.367 142.106 115.468C142.007 113.232 141.416 111.029 140.594 108.892C145.032 107.051 150.753 106.031 158.052 106.886C173.701 108.728 176.792 118.493 176.2 122.603C175.608 126.713 172.321 128.949 171.236 129.64C170.151 130.33 169.789 130.56 169.888 131.053C170.019 131.777 170.545 131.744 171.466 131.612C172.748 131.382 179.685 128.291 179.981 120.729C180.474 111.062 171.269 100.508 154.994 100.606ZM34.2672 141.312C29.0725 146.967 21.8394 149.105 18.716 147.296C15.3625 145.356 16.6776 137.005 23.0559 131.021C26.9355 127.371 31.9329 123.984 35.2535 121.913C36.0097 121.452 37.1275 120.795 38.4755 119.973C38.7057 119.841 38.8372 119.775 38.8372 119.775C39.1002 119.611 39.3632 119.447 39.6262 119.282C41.9606 127.831 39.7249 135.361 34.2672 141.312ZM72.0765 115.6C70.2683 120.006 66.4873 131.284 64.1859 130.659C62.2132 130.133 60.9967 121.584 63.7914 113.134C65.2051 108.892 68.197 103.828 69.9395 101.856C72.767 98.6992 75.8903 97.647 76.6465 98.9293C77.6 100.606 73.1944 112.838 72.0765 115.6ZM103.277 130.527C102.521 130.922 101.798 131.185 101.469 130.988C101.239 130.856 101.798 130.33 101.798 130.33C101.798 130.33 105.71 126.121 107.256 124.214C108.143 123.096 109.195 121.781 110.313 120.302C110.313 120.433 110.313 120.597 110.313 120.729C110.313 125.76 105.447 129.146 103.277 130.527ZM127.344 125.036C126.785 124.642 126.884 123.327 128.758 119.216C129.481 117.605 131.191 114.909 134.117 112.312C134.446 113.364 134.676 114.383 134.643 115.337C134.61 121.683 130.073 124.05 127.344 125.036Z" fill="#CD6799"/>
</svg>
