<svg width="180" height="180" viewBox="0 0 180 180" fill="none" xmlns="http://www.w3.org/2000/svg">
<path d="M0 0H180V180H0V0Z" fill="#34BDB2"/>
<path d="M118.449 61.2006C108.946 55.6867 100.51 51.3505 89.4735 51.5418C83.1594 51.6515 77.7383 55.0834 76.5986 61.3644C75.5376 67.2081 80.7322 70.4495 86.1365 72.4393C95.0992 75.7398 102.902 79.2245 111.708 82.8941C127.718 89.566 135.927 100.371 134.957 114.234C133.722 131.874 123.106 144.525 106.235 148.696C84.1888 154.147 62.7808 145.844 44.6929 134.254C49.2583 127.299 54.5549 122.552 59.0929 115.639C69.5427 120.087 77.7524 126.098 88.6846 127.035C96.3929 127.696 105.127 127.328 106.859 118.274C108.42 110.109 101.314 105.732 94.3834 103.288C86.1322 100.377 77.8965 96.8174 69.805 93.5127C54.8474 87.4032 48.7612 75.4536 49.7856 61.3764C49.7856 53.1224 56.634 36.4394 73.4254 31.2503C99.2244 23.2769 113.439 31.4416 132.147 43.4643C127.178 50.0357 123.358 54.7079 118.449 61.2006Z" fill="white"/>
</svg>
