<svg width="180" height="180" viewBox="0 0 180 180" fill="none" xmlns="http://www.w3.org/2000/svg">
<path d="M90 36C65.9993 36 50.9996 48.0003 44.9989 71.9985C54 59.9982 64.5002 55.4998 76.4994 58.4988C83.3465 60.2099 88.2398 65.1788 93.6576 70.6769C102.481 79.6332 112.693 89.9989 135.001 89.9989C159 89.9989 174.002 77.9986 180 53.9981C171.001 65.9984 160.501 70.499 148.499 67.5001C141.655 65.789 136.761 60.82 131.344 55.322C122.52 46.3657 112.306 36 90 36ZM44.9989 89.9989C21.0004 89.9989 5.9985 101.999 0 126C8.99888 113.999 19.4991 109.499 31.5006 112.5C38.3454 114.213 43.2387 119.18 48.6565 124.676C57.4798 133.632 67.6941 144 90 144C114.001 144 129 132 135.001 107.999C126 119.999 115.5 124.5 103.501 121.499C96.6535 119.79 91.7602 114.819 86.3424 109.323C77.5191 100.367 67.307 89.9989 44.9989 89.9989Z" fill="#06B6D4"/>
</svg>
