<svg width="151" height="150" viewBox="0 0 151 150" fill="none" xmlns="http://www.w3.org/2000/svg">
<path d="M7.84224 85.5179H40.1596C43.4351 85.5179 45.4003 84.0623 46.0553 81.1508L56.9735 31.0001L76.1164 145.931C76.9901 151.172 85.0696 151.099 86.0885 145.931L104.649 58.9505L108.944 80.5682C109.599 83.9166 111.491 85.5179 114.912 85.5179H143.154C146.065 85.5179 148.395 83.2616 148.395 80.4227C148.395 77.5114 146.138 75.2549 143.154 75.2549H117.387L109.016 38.2064C107.925 33.1836 100.427 33.1836 99.1901 38.4247L80.9205 120.019L61.8503 4.06907C61.0496 -1.02627 53.5525 -1.17161 52.3879 4.06907L36.9572 75.2549H7.84224C4.93044 75.2549 2.60156 77.584 2.60156 80.4227C2.60156 83.2616 4.93044 85.5179 7.84224 85.5179Z" fill="#DE9F35"/>
</svg>
