<svg width="151" height="147" viewBox="0 0 151 147" fill="none" xmlns="http://www.w3.org/2000/svg">
<path d="M6.66777 2.2832C4.14592 2.2832 2.10156 4.32756 2.10156 6.84941V139.726C2.10156 142.248 4.14592 144.292 6.66777 144.292H27.2157C29.7376 144.292 31.7819 142.248 31.7819 139.726V6.84941C31.7819 4.32756 29.7376 2.2832 27.2157 2.2832H6.66777ZM43.1975 10.7307C40.6755 10.7307 38.6312 12.7751 38.6312 15.2969V139.726C38.6312 142.248 40.6755 144.292 43.1975 144.292H63.7454C66.2673 144.292 68.3116 142.248 68.3116 139.726V15.2969C68.3116 12.7751 66.2673 10.7307 63.7454 10.7307H43.1975ZM75.0507 29.77C74.1027 27.433 75.229 24.7702 77.5659 23.8225L96.6075 16.0998C98.9445 15.152 101.607 16.2782 102.555 18.6151L147.298 128.938C148.246 131.275 147.12 133.938 144.783 134.886L125.741 142.608C123.404 143.556 120.742 142.43 119.794 140.093L75.0507 29.77Z" fill="#FFBE26"/>
<path d="M6.66777 2.2832C4.14592 2.2832 2.10156 4.32756 2.10156 6.84941V139.726C2.10156 142.248 4.14592 144.292 6.66777 144.292H27.2157C29.7376 144.292 31.7819 142.248 31.7819 139.726V6.84941C31.7819 4.32756 29.7376 2.2832 27.2157 2.2832H6.66777ZM43.1975 10.7307C40.6755 10.7307 38.6312 12.7751 38.6312 15.2969V139.726C38.6312 142.248 40.6755 144.292 43.1975 144.292H63.7454C66.2673 144.292 68.3116 142.248 68.3116 139.726V15.2969C68.3116 12.7751 66.2673 10.7307 63.7454 10.7307H43.1975ZM75.0507 29.77C74.1027 27.433 75.229 24.7702 77.5659 23.8225L96.6075 16.0998C98.9445 15.152 101.607 16.2782 102.555 18.6151L147.298 128.938C148.246 131.275 147.12 133.938 144.783 134.886L125.741 142.608C123.404 143.556 120.742 142.43 119.794 140.093L75.0507 29.77Z" stroke="#FFBE26"/>
</svg>
