<svg width="1304" height="1304" viewBox="0 0 1304 1304" fill="none" xmlns="http://www.w3.org/2000/svg">
<path fill-rule="evenodd" clip-rule="evenodd" d="M747.117 1.38827C745.489 3.8052 746.545 6.76895 749.034 6.76895C750.653 6.76895 750.989 6.14755 750.744 3.60517C750.384 -0.148044 748.803 -1.11505 747.117 1.38827ZM738.442 8.94916C736.941 10.7991 735.155 14.6612 734.473 17.5303C732.961 23.8874 732.923 46.6044 734.422 48.452C736.257 50.7139 742.798 41.4332 744.579 34.0404C746.107 27.6963 746.627 13.3652 745.515 8.24846C744.715 4.56981 741.758 4.86217 738.442 8.94916ZM696.653 28.3697C696.414 29.1841 696.103 31.6933 695.964 33.9457C695.771 37.0491 696.116 38.1463 697.387 38.4706C699.432 38.9926 701.357 33.5859 700.545 29.5995C699.958 26.7139 697.381 25.8996 696.653 28.3697ZM998.32 31.3288C997.996 33.7705 997.457 37.2326 997.121 39.0222C996.785 40.8118 996.918 42.2771 997.418 42.2771C998.269 42.2771 1000.57 32.2709 1000.57 28.5757C1000.57 25.0284 998.88 27.0985 998.32 31.3288ZM550.683 73.3929C550.38 74.8831 550.571 77.5272 551.109 79.2707C551.645 81.0129 553.183 91.9104 554.525 103.487C557.548 129.57 559.092 138.581 561.722 145.479C563.977 151.394 568.058 156.818 569.198 155.417C569.596 154.928 570.071 149.225 570.253 142.745C570.557 131.927 570.271 129.586 566.748 114.138C564.639 104.885 562.637 94.3853 562.3 90.8049C561.478 82.0604 560.006 76.5543 557.634 73.3467C555.013 69.803 551.409 69.8267 550.683 73.3929ZM682.353 143.075C681.285 151.305 684.492 152.358 686.223 144.348C686.769 141.818 685.283 138.149 683.711 138.149C683.316 138.149 682.704 140.366 682.353 143.075ZM815.896 144.844C815.259 149.689 815.683 151.169 817.712 151.169C818.712 151.169 819.096 149.69 819.096 145.843C819.096 139.154 816.742 138.419 815.896 144.844ZM875.714 149.097C873.934 151.864 870.135 157.164 867.272 160.874C854.338 177.635 847.2 188.901 843.591 198.249C842.265 201.685 841.18 204.747 841.18 205.055C841.18 206.158 843.639 205.499 846.972 203.503C853.049 199.863 857.474 194.789 864.222 183.723C867.87 177.74 872.231 171.03 873.913 168.813C881.496 158.811 885.35 151.475 885.35 147.043C885.35 144.46 884.927 144.067 882.149 144.067C879.533 144.067 878.36 144.983 875.714 149.097ZM668.49 169.297C666.461 172.31 666.192 183.421 667.857 195.405C669.005 203.657 669.29 209.77 668.828 216.202C668.137 225.823 669.92 234.754 672.333 233.763C674.508 232.869 676.103 224.053 676.032 213.308C675.982 205.449 676.466 200.949 677.883 196.146C680.075 188.714 680.347 182.883 678.772 177.089C676.641 169.247 671.266 165.173 668.49 169.297ZM974.412 182.641C972.654 186.148 969.692 208.568 971.239 206.661C971.978 205.751 975.695 184.035 975.338 182.717C975.121 181.912 974.791 181.884 974.412 182.641ZM201.161 199.295C202.913 201.193 204.143 201.844 204.372 200.994C204.942 198.889 202.653 196.141 200.365 196.184C198.479 196.218 198.54 196.457 201.161 199.295ZM437.894 204.431C437.894 206.009 438.534 206.798 439.814 206.798C441.094 206.798 441.734 206.009 441.734 204.431C441.734 202.853 441.094 202.064 439.814 202.064C438.534 202.064 437.894 202.853 437.894 204.431ZM911.756 210.349C910.437 212.145 910.343 212.707 911.367 212.678C912.851 212.637 916.076 209.94 916.076 208.739C916.076 207.108 913.403 208.105 911.756 210.349ZM226.648 255.85C226.648 257.739 230.219 261.244 232.143 261.244C234.049 261.244 233.591 258.893 231.209 256.443C228.611 253.771 226.648 253.516 226.648 255.85ZM491.665 259.427C491.665 261.683 492.354 266.077 493.194 269.192C495.059 276.099 503.027 292.279 504.144 291.428C504.589 291.09 505.238 292.415 505.586 294.374C505.936 296.333 506.618 297.936 507.104 297.936C508.29 297.936 508.22 295.946 506.929 292.973C506.125 291.121 506.168 290.306 507.107 289.59C508.008 288.905 508.064 288.22 507.311 287.077C506.741 286.215 505.315 281.247 504.142 276.039C501.542 264.497 500.143 261.004 496.836 257.797C493.093 254.168 491.665 254.618 491.665 259.427ZM322.073 285.451C321.329 287.843 322.436 289.651 324.646 289.651C326.736 289.651 327.107 287.309 325.357 285.153C323.823 283.261 322.724 283.361 322.073 285.451ZM1059.78 304.835C1057.99 307.261 1057.7 310.442 1059.15 311.547C1059.68 311.95 1060.11 311.728 1060.11 311.056C1060.11 310.383 1061.4 309.006 1062.99 307.996C1064.57 306.987 1065.87 305.375 1065.87 304.415C1065.87 301.929 1061.7 302.216 1059.78 304.835ZM632.25 307.996C631.35 312.412 632.57 317.105 634.496 316.649C636.729 316.118 638.264 309.2 636.673 306.837C634.865 304.152 632.929 304.66 632.25 307.996ZM118.145 316.282C118.145 317.617 118.819 318.103 120.305 317.844C121.494 317.636 122.466 316.933 122.466 316.282C122.466 315.631 121.494 314.928 120.305 314.719C118.819 314.46 118.145 314.947 118.145 316.282ZM488.784 318.057C488.784 319.635 489.425 320.424 490.705 320.424C491.985 320.424 492.625 319.635 492.625 318.057C492.625 316.479 491.985 315.69 490.705 315.69C489.425 315.69 488.784 316.479 488.784 318.057ZM1090.81 325.779C1090.15 326.771 1089.86 327.901 1090.17 328.288C1091.15 329.491 1095.39 327.643 1095.98 325.761C1096.74 323.33 1092.45 323.345 1090.81 325.779ZM553.147 327.648C553.102 330.62 558.952 357.579 559.91 358.812C562.238 361.81 561.754 356.948 558.415 343.792C554.47 328.255 553.198 324.355 553.147 327.648ZM266.977 329.976C266.977 331.835 267.494 332.334 269.128 332.047C272.319 331.485 272.6 327.526 269.447 327.526C267.589 327.526 266.977 328.133 266.977 329.976ZM64.1043 334.169C62.8436 335.724 63.3822 336.692 66.3474 338.206C68.5501 339.33 69.5544 339.367 70.3802 338.349C71.0725 337.495 71.1417 336.588 70.5665 335.895C69.2616 334.321 64.9215 333.162 64.1043 334.169ZM241.228 343.709C241.395 345.449 242.018 347.07 242.613 347.31C244.193 347.948 245.111 344.073 243.831 342.171C242.085 339.579 240.899 340.28 241.228 343.709ZM846.516 345.544C844.407 349.256 844.63 350.014 847.837 350.014C849.806 350.014 850.835 349.305 851.26 347.658C852.536 342.702 849.021 341.135 846.516 345.544ZM790.947 362.483C789.055 367.372 788.898 369.762 790.427 370.389C791.251 370.728 791.251 371.472 790.427 373.369C789.824 374.76 789.345 376.866 789.363 378.047C789.392 379.832 789.607 379.73 790.633 377.452C791.312 375.941 792.917 374.064 794.199 373.279C796.199 372.056 796.572 370.888 796.819 365.076C797.092 358.641 796.993 358.3 794.836 358.3C793.182 358.3 792.126 359.436 790.947 362.483ZM49.9701 380.013C49.9701 382.155 53.0975 385.523 55.087 385.523C57.2984 385.523 57.0958 384.036 54.4696 380.994C51.9539 378.081 49.9701 377.649 49.9701 380.013ZM525.272 382.465C525.272 384.454 525.8 385.523 526.78 385.523C527.78 385.523 528.184 384.66 527.98 382.952C527.527 379.163 525.272 378.757 525.272 382.465ZM32.9264 389.499C30.1447 391.198 30.2052 391.9 33.3575 394.445C35.1282 395.876 36.0663 396.105 36.3179 395.173C36.5214 394.422 37.5152 393.808 38.5273 393.808C40.9864 393.808 40.8558 391.996 38.2335 389.733C35.8474 387.672 35.9146 387.674 32.9264 389.499ZM117.876 388.615C116.352 390.495 117.346 392.369 120.246 393.083C123.49 393.882 125.923 392.253 124.338 390.341C123.033 388.767 118.693 387.608 117.876 388.615ZM67.4343 393.499C67.9163 396.583 71.0946 396.928 71.0946 393.894C71.0946 392.2 70.4782 391.441 69.1041 391.441C67.7301 391.441 67.2125 392.079 67.4343 393.499ZM358.196 401.46C358.196 404.4 360.557 406.827 363.414 406.827C364.492 406.827 364.918 405.656 364.918 402.685C364.918 398.74 364.758 398.542 361.557 398.542C358.626 398.542 358.196 398.915 358.196 401.46ZM143.603 402.389C144.346 405.568 148.417 410.378 150.365 410.378C152.636 410.378 151.947 406.885 148.945 403.185C145.485 398.92 142.695 398.503 143.603 402.389ZM702.363 417.978C701.513 422.158 702.212 425.089 704.168 425.553C706.491 426.105 708.672 423.673 708.672 420.531C708.672 415.054 703.394 412.918 702.363 417.978ZM410.523 421.04C409.856 422.372 412.222 425.765 413.82 425.765C415.18 425.765 415.075 424.456 413.512 421.918C412.052 419.549 411.371 419.349 410.523 421.04ZM635.888 433.104C635.254 433.885 634.736 436.814 634.736 439.613C634.736 444.207 634.963 444.703 637.058 444.703C641.613 444.703 642.418 443.617 642.418 437.475C642.418 431.921 642.307 431.683 639.729 431.683C638.25 431.683 636.522 432.322 635.888 433.104ZM646.258 446.478C646.258 447.455 646.621 448.254 647.064 448.254C647.508 448.254 648.394 449.67 649.034 451.401C650.164 454.458 649.37 456.46 647.003 456.521C644.686 456.581 641.882 471.926 644.188 471.926C645.028 471.926 647.977 488.771 651.129 511.577C653.434 528.255 653.61 528.739 657.338 528.739C659.165 528.739 660.661 528.206 660.661 527.555C660.661 526.904 659.581 526.372 658.261 526.372C655.93 526.372 655.86 526.134 655.86 518.104C655.86 511.888 655.054 506.823 652.607 497.687C650.818 491.004 648.818 482.866 648.162 479.6C647.027 473.946 647.091 473.447 649.495 469.079C651.505 465.429 652.02 463.09 652.02 457.614C652.02 453.828 651.518 449.376 650.905 447.717C649.706 444.473 646.258 443.554 646.258 446.478ZM339.221 459.098C336.733 462.165 338.477 464.824 342.975 464.824C344.488 464.824 344.819 464.153 344.577 461.569C344.24 457.958 341.261 456.583 339.221 459.098ZM673.535 478.451C672.786 482.131 674.664 485.186 677.381 484.706C680.037 484.239 680.67 479.129 678.333 477.022C675.746 474.692 674.207 475.15 673.535 478.451ZM245.532 477.45C244.052 479.274 244.972 481.545 247.043 481.182C249.761 480.703 250.62 476.66 248.003 476.66C246.996 476.66 245.884 477.015 245.532 477.45ZM582.915 481.69C582.95 484.758 584.98 488.496 586.609 488.496C587.622 488.496 587.473 485.619 586.196 480.507C585.542 477.891 582.883 478.851 582.915 481.69ZM150.792 483.129C150.792 485.559 154.539 487.901 155.847 486.289C156.552 485.42 156.485 484.496 155.626 483.22C154.066 480.903 150.792 480.841 150.792 483.129ZM596.355 485.497C593.488 489.756 600.115 498.881 603.933 495.936C605.82 494.482 606.453 487.741 604.918 485.46C603.428 483.248 597.852 483.272 596.355 485.497ZM405.163 494.748C403.52 496.302 401.406 500.658 401.406 502.486C401.406 504.174 407.543 507.434 410.721 507.434C415.55 507.434 417.157 502.908 414.694 496.245C413.796 493.817 412.911 493.238 410.133 493.268C408.238 493.289 406.001 493.955 405.163 494.748ZM850.463 494.02C849.293 495.462 849.801 497.965 851.262 497.965C852.062 497.965 852.703 496.913 852.703 495.598C852.703 493.24 851.679 492.519 850.463 494.02ZM692.761 497.28C691.788 502.064 692.619 504.475 695.242 504.475C697.145 504.475 697.692 503.8 697.939 501.149C698.499 495.124 693.9 491.687 692.761 497.28ZM506.378 498.676C505.477 501.573 509.97 504.265 511.296 501.622C512.242 499.735 510.729 496.781 508.816 496.781C507.799 496.781 506.703 497.634 506.378 498.676ZM741.902 498.654C740.614 502.789 741.259 505.067 743.719 505.067C745.584 505.067 746.12 504.46 746.12 502.344C746.12 497.812 743.011 495.092 741.902 498.654ZM1036.1 508.618C1036.1 511.528 1036.47 512.255 1037.78 511.943C1038.84 511.691 1039.46 510.464 1039.46 508.618C1039.46 506.771 1038.84 505.544 1037.78 505.292C1036.47 504.98 1036.1 505.707 1036.1 508.618ZM426.196 509.209C425.378 511.423 425.378 512.914 426.196 515.127C427.122 517.632 427.94 518.086 431.52 518.086C435.095 518.086 435.839 517.674 436.328 515.423C437.641 509.384 435.685 506.25 430.603 506.25C428.001 506.25 427.056 506.886 426.196 509.209ZM699.07 515.397C699.07 516.685 710.574 524.019 712.513 523.968C713.596 523.938 713.477 523.475 712.033 522.099C707.728 517.996 699.07 513.52 699.07 515.397ZM488.161 519.894C487.529 521.926 489.178 523.953 491.492 523.987C493.397 524.014 492.447 518.773 490.462 518.306C489.536 518.09 488.501 518.804 488.161 519.894ZM500.655 521.045C499.735 523.998 501.065 526.372 503.638 526.372C505.699 526.372 506.068 525.831 506.068 522.821C506.068 519.811 505.699 519.27 503.638 519.27C502.3 519.27 500.958 520.069 500.655 521.045ZM408.273 521.501C407.561 522.057 407.134 523.514 407.325 524.738C407.587 526.407 408.507 526.963 411.008 526.963C413.508 526.963 414.429 526.407 414.69 524.738C415.057 522.386 413.413 520.49 411.008 520.49C410.216 520.49 408.985 520.945 408.273 521.501ZM683.089 526.979C682.307 529.487 684.469 532.29 687.184 532.29C689.082 532.29 689.468 531.688 689.468 528.739C689.468 525.574 689.151 525.188 686.557 525.188C684.844 525.188 683.416 525.925 683.089 526.979ZM698.11 531.023C698.11 532.866 698.722 533.473 700.58 533.473C703.733 533.473 703.452 529.514 700.26 528.952C698.627 528.665 698.11 529.164 698.11 531.023ZM439.094 530.706C437.372 531.563 437.614 533.979 439.65 536.249C442.391 539.307 443.655 538.617 443.655 534.065C443.655 529.914 442.457 529.034 439.094 530.706ZM722.595 530.7C719.737 531.602 718.274 534.58 718.274 539.491C718.274 542.373 718.788 544.115 719.775 544.583C721.865 545.571 721.181 546.538 712.841 554.384C697.021 569.269 693.727 572.003 692.108 571.597C689.684 570.989 690.043 568.451 692.812 566.625C694.124 565.76 695.416 564.2 695.685 563.158C695.953 562.116 698.229 560.04 700.742 558.543C705.836 555.508 714.212 547.009 713.263 545.838C712.926 545.423 709.072 547.797 704.699 551.115C696.59 557.267 692.721 558.536 691.736 555.37C691.027 553.095 689.369 553.127 685.344 555.493C682.22 557.329 681.944 557.28 676.909 554.025C672.268 551.025 670.67 550.646 662.179 550.529C653.515 550.409 652.495 550.156 650.896 547.723C649.93 546.251 649.139 543.774 649.139 542.219C649.139 540.494 648.577 539.391 647.699 539.391C646.907 539.391 646.258 538.84 646.258 538.166C646.258 537.376 645.662 537.325 644.578 538.024C643.654 538.621 640.551 539.72 637.682 540.467C631.334 542.121 629.935 543.432 629.935 547.73C629.935 550.483 630.518 551.281 633.378 552.444C638.581 554.56 643.378 560.264 643.378 564.332C643.378 566.86 643.011 567.55 641.937 567.043C641.145 566.667 640.497 566.885 640.497 567.527C640.497 568.167 641.145 569.354 641.937 570.165C644.004 572.279 643.773 576.083 641.578 576.083C639.336 576.083 633.814 573.706 626.577 569.625C619.229 565.483 617.552 565.937 614.581 572.878C610.92 581.431 607.56 583.239 605.878 577.562C605.347 575.772 604.728 573.661 604.505 572.871C603.902 570.748 598.284 573.274 595.602 576.874C594.411 578.473 592.688 582.91 591.774 586.734C590.148 593.535 589.985 593.758 584.338 596.89C576.416 601.283 568.655 604.703 564.641 605.569C561.485 606.25 561.262 606.599 560.985 611.31C560.822 614.068 560.313 616.326 559.853 616.326C558.874 616.326 556.006 612.972 555.984 611.803C555.937 609.371 542.934 595.021 540.777 595.021C538.809 595.021 539.57 596.353 546.637 605.291C550.465 610.134 553.722 614.523 553.874 615.046C554.026 615.568 553.047 616.885 551.701 617.973C549.322 619.895 549.227 619.866 548.329 616.954C547.581 614.531 546.758 613.958 544.02 613.958C540.281 613.958 540.199 614.22 540.594 624.811C540.807 630.515 539.276 632.896 535.396 632.896C534.191 632.896 514.663 617.385 510.389 613.033C506.781 609.359 493.615 598.572 492.74 598.572C490.563 598.572 491.784 600.437 496.223 603.894C498.728 605.845 504.021 610.629 507.984 614.523C520.625 626.946 523.171 629.193 528.115 632.281C532.524 635.034 534.406 637.63 531.994 637.63C531.466 637.63 531.034 638.664 531.034 639.928C531.034 641.192 530.602 642.554 530.073 642.957C528.476 644.173 528.988 645.62 531.274 646.339C532.461 646.715 535.918 648.943 538.955 651.294C545.306 656.21 545.884 658.722 541.542 662.533C539.056 664.715 538.702 665.636 539.222 668.556C539.731 671.412 539.319 672.599 536.822 675.475C534.196 678.499 533.504 678.776 531.456 677.626C530.163 676.899 528.783 676.731 528.389 677.25C527.995 677.771 528.233 678.444 528.917 678.744C529.603 679.045 531.535 680.836 533.212 682.725C536.048 685.916 536.113 686.158 534.147 686.158C532.63 686.158 531.852 687.082 531.401 689.413C531.056 691.204 530.09 694.132 529.256 695.923L527.739 699.178H516.423C509.666 699.178 505.108 699.645 505.108 700.339C505.108 700.977 506.212 701.842 507.562 702.259C510.416 703.142 525.022 702.242 527.307 701.043C528.392 700.474 529.016 700.962 529.377 702.661C529.811 704.705 529.446 705.096 527.103 705.096C525.568 705.096 523.556 706.029 522.632 707.167C521.327 708.776 519.664 709.16 515.19 708.887C511.009 708.633 509.824 708.872 510.869 709.757C511.661 710.428 514.164 710.986 516.431 710.996C519.164 711.008 521.224 711.786 522.547 713.307L524.544 715.598L522.472 719.731C521.158 722.352 520.605 724.869 520.959 726.611C521.468 729.109 520.602 729.922 511.48 735.513C505.315 739.293 498.08 742.64 492.734 744.187C485.651 746.237 483.588 747.351 481.667 750.165C480.369 752.067 478.861 753.624 478.316 753.624C476.686 753.624 470.541 757.538 470.541 758.577C470.541 759.988 471.779 759.773 475.926 757.636C480.046 755.515 487.34 754.697 485.857 756.524C482.661 760.458 487.871 765.038 493.945 763.635C496.961 762.936 497.426 763.132 497.426 765.092C497.426 770.513 503.662 771.968 509.166 767.832C513.144 764.842 514.534 764.797 512.382 767.729C511.053 769.538 510.933 770.496 511.786 772.463C512.376 773.82 513.521 774.929 514.333 774.929C515.644 774.929 515.641 775.133 514.298 776.788C511.717 779.97 512.445 782.03 516.15 782.03C519.993 782.03 520.424 783.51 517.447 786.481C513.11 790.807 511.829 792.76 511.829 795.05C511.829 798.382 517.585 798.239 522.573 794.782L526.377 792.147L528.094 794.954C529.651 797.499 530.107 797.634 532.966 796.405C537.837 794.313 547.022 794.634 547.734 796.922C548.783 800.29 548.355 801.75 545.917 803.12C542.001 805.319 543.149 806.566 549.242 806.736C554.119 806.872 555.124 806.533 556.028 804.451C557.665 800.68 561.201 801.851 561.594 806.294C561.848 809.161 561.672 809.56 560.682 808.366C556.263 803.033 550.67 811.774 554.437 818.125C556.44 821.501 554.731 825.168 545.252 837.823C530.057 858.112 525.856 864.455 527.024 865.345C527.486 865.698 528.867 864.539 530.094 862.771C531.321 861.003 536.277 854.23 541.108 847.72C545.939 841.211 551.313 833.916 553.051 831.511C554.789 829.106 557.134 826.975 558.261 826.776C559.389 826.578 561.358 824.419 562.637 821.977C563.916 819.536 565.56 817.538 566.289 817.538C567.019 817.538 568.867 816.742 570.395 815.768C573.751 813.628 575.232 815.414 572.823 818.695C571.937 819.9 571.355 821.911 571.526 823.162C571.744 824.743 570.084 827.24 566.079 831.355C560.029 837.571 550.246 850.123 547.661 854.989C543.865 862.13 548.34 858.019 560.737 842.979L574.177 826.674L575.89 830.383C577.7 834.302 579.735 835.564 578.558 832.038C576.921 827.136 577.03 825.831 579.316 823.014C581.603 820.194 585.203 818.537 592.487 816.951C595.825 816.223 595.866 816.268 598.488 823.391C601.19 830.733 601.848 835.292 600.205 835.292C599.647 835.292 599.508 838.463 599.854 843.282C600.58 853.427 602.013 857.047 602.077 848.904L602.123 842.986L609.068 840.318C613.054 838.786 616.956 837.971 618.228 838.403C621.013 839.349 624.931 834.99 628.081 827.439C629.301 824.516 631.744 820.56 633.511 818.647C636.451 815.466 637.33 815.171 643.891 815.171C650.798 815.171 651.059 815.273 651.059 817.986C651.059 822.274 652.866 823.266 659.943 822.869C663.906 822.648 666.678 823.009 667.075 823.8C667.431 824.51 667.214 825.302 666.593 825.556C665.971 825.812 665.463 827.277 665.463 828.811C665.463 830.346 665.03 831.931 664.502 832.334C662.392 833.942 663.509 838.539 666.365 839.997C667.917 840.79 669.618 841.111 670.144 840.71C670.7 840.286 671.295 842.097 671.565 845.035C673.281 863.7 674.375 871.383 675.969 875.968C677.679 880.885 679.485 883.5 680.397 882.376C680.618 882.103 679.273 874.46 677.407 865.392C675.541 856.324 673.826 844.911 673.597 840.031C673.135 830.164 671.7 824.64 669.602 824.64C666.066 824.64 671.873 813.337 675.982 812.224C681.164 810.821 686.109 815.804 696.367 832.766C700.054 838.863 703.817 844.091 704.728 844.385C706.315 844.896 707.078 846.865 712.069 863.333C714.906 872.696 724.414 896.53 726.845 900.373C731.559 907.827 729.48 901.287 715.192 863.699C711.28 853.409 710.128 849.473 710.44 847.461C710.562 846.668 709.826 845.375 708.802 844.587C707.78 843.8 707.14 842.523 707.381 841.749C707.621 840.975 704.706 832.795 700.902 823.569C695.969 811.607 693.544 806.878 692.446 807.081C689.192 807.684 685.618 805.565 684.204 802.193C682.095 797.166 682.288 796.645 687.099 794.38C690.62 792.723 693.145 792.476 700.302 793.089C705.17 793.505 710.125 794.179 711.312 794.586C713.253 795.251 713.473 794.908 713.473 791.223C713.473 787.308 712.927 786.137 705.887 774.929C703.006 770.34 702.753 767.589 704.827 763.385C707.163 758.649 708.268 758.529 708.982 762.933C709.401 765.515 710.211 766.491 712.385 767.026C714.037 767.434 717.922 770.824 721.615 775.083C725.123 779.127 728.846 782.514 729.888 782.609C732.068 782.807 740.359 790.97 740.359 792.919C740.359 793.636 741.464 797.005 742.814 800.408C745.146 806.284 745.485 806.623 749.597 807.195C752.547 807.604 755.161 809.02 757.808 811.642C760.905 814.71 761.862 815.157 762.533 813.85C764.024 810.947 763.477 808.602 759.786 802.091C755.112 793.844 750.628 790.075 745.983 790.488C742.977 790.756 741.76 790.018 737.706 785.471C733.497 780.75 733.005 779.7 733.41 776.3C733.661 774.189 733.151 770.152 732.278 767.33C730.952 763.054 730 761.875 726.567 760.258C721.574 757.908 716.748 752.319 714.779 746.607C712.446 739.844 710.477 724.901 710.786 716.321C711.071 708.437 711.088 708.395 714.913 705.78C720.063 702.26 727.26 699.914 730.158 700.811C735.028 702.317 736.545 700.092 736.874 690.965C737.003 687.369 737.412 686.765 740.37 685.795C742.54 685.082 748.513 685.213 757.34 686.165C772.375 687.786 778.399 687.194 781.955 683.747C783.964 681.799 784.778 681.655 787.392 682.778C791.381 684.492 798.575 683.476 807.573 679.93C814.511 677.196 815.169 677.144 825.519 678.511C832.967 679.495 836.745 680.522 837.831 681.861C839.929 684.447 850.03 684.56 851.743 682.016C852.516 680.868 854.847 680.181 858.341 680.073L863.745 679.907L858.944 679.076C856.304 678.619 852.445 677.314 850.37 676.178C847.782 674.761 845.52 674.359 843.168 674.898C836.93 676.327 814.218 674.813 813.233 672.903C812.913 672.283 810.86 671.479 808.672 671.118C806.41 670.744 804.692 669.82 804.692 668.978C804.692 667.466 805.154 667.232 814.24 664.163C817.114 663.192 819.922 661.958 820.481 661.421C821.039 660.885 822.766 660.07 824.318 659.611C828.764 658.299 832.538 654.418 832.538 651.161C832.538 648.494 832.184 648.283 827.708 648.283C824.299 648.283 822.714 648.806 822.324 650.058C822.019 651.035 820.737 651.834 819.473 651.834C818.209 651.834 817.175 652.366 817.175 653.017C817.175 653.668 818.255 654.201 819.576 654.201C823.311 654.201 822.415 656.263 817.474 659.037C809.377 663.583 805.261 665.076 799.411 665.586C796.243 665.862 790.944 667.151 787.636 668.45C772.639 674.341 767.158 675 760.283 671.737C756.604 669.991 756.987 667.944 761.454 665.461C763.551 664.296 765.995 662.35 766.884 661.138C769.123 658.09 772.251 658.385 774.926 661.894C776.167 663.522 777.538 664.853 777.974 664.853C779.379 664.853 778.82 662.639 776.842 660.368C774.94 658.184 775.029 658.103 783.803 653.933C794.223 648.982 820.096 637.309 834.459 631.076C840.004 628.669 845.06 626.188 845.693 625.561C846.326 624.933 848.054 624.52 849.534 624.64C855.696 625.147 859.128 624.464 862.265 622.107C865.47 619.699 865.52 619.552 863.705 617.876C861.275 615.632 854.009 616.696 851.856 619.611C851.001 620.769 846.413 623.387 841.66 625.429C836.907 627.472 829.346 630.725 824.857 632.658C820.368 634.592 810.559 638.621 803.061 641.611C795.562 644.602 786.056 648.972 781.937 651.322C770.486 657.856 770.745 657.961 764.204 644.14C761.124 637.63 758.069 632.304 757.416 632.304C755.388 632.304 755.484 636.285 757.615 640.535C758.761 642.821 759.528 646.052 759.368 647.921C759.12 650.804 759.621 651.551 763.164 653.578C765.408 654.864 767.233 656.195 767.219 656.537C767.17 657.807 758.025 664.723 755.306 665.548C753.756 666.018 751.38 667.116 750.025 667.989C746.624 670.177 741.799 671.176 738.925 670.287C735.796 669.319 735.893 668.332 739.398 665.445C742.615 662.796 742.865 661.855 740.971 659.521C740.251 658.634 739.36 655.077 738.99 651.616C738.571 647.692 737.193 643.159 735.329 639.57C732.906 634.908 732.553 633.45 733.461 631.877C734.076 630.81 735.69 627.363 737.047 624.216C738.924 619.86 739.901 618.677 741.135 619.262C743.422 620.345 759.958 623.312 760.443 622.727C761.295 621.698 759.603 621.033 750.531 618.832C743.622 617.158 740.463 615.792 738.588 613.67C732.856 607.183 721.195 601.465 704.094 596.752L696.154 594.565L693.294 587.511L690.435 580.456L693.636 576.624C695.397 574.516 698.312 571.869 700.113 570.743C706.147 566.97 714.867 559.157 719.814 553.093C722.509 549.788 726.26 545.462 728.149 543.477C731.705 539.742 733.607 534.147 731.995 532.159C730.857 530.757 725.198 529.877 722.595 530.7ZM688.447 535.339C687.406 536.886 687.426 537.389 688.569 538.28C690.097 539.471 693.309 539.771 693.309 538.721C693.309 537.284 691.278 533.473 690.511 533.473C690.067 533.473 689.137 534.312 688.447 535.339ZM447.496 538.799C447.496 540.641 448.04 541.758 448.936 541.758C449.832 541.758 450.376 540.641 450.376 538.799C450.376 536.958 449.832 535.84 448.936 535.84C448.04 535.84 447.496 536.958 447.496 538.799ZM604.009 538.65C604.009 540.937 608.79 551.227 609.852 551.227C611.168 551.227 610.991 550.576 607.759 543.516C604.669 536.767 604.009 535.911 604.009 538.65ZM514.71 545.831C514.71 547.608 516.434 549.497 517.197 548.556C517.867 547.731 516.541 544.126 515.568 544.126C515.096 544.126 514.71 544.893 514.71 545.831ZM1077.39 546.493C1076.23 547.421 1076.36 547.643 1078.11 547.659C1079.3 547.668 1080.27 547.144 1080.27 546.493C1080.27 545.01 1079.25 545.01 1077.39 546.493ZM731.477 549.676C729.309 550.374 729.013 559.513 731.158 559.513C731.907 559.513 733.194 559.831 734.016 560.22C736.247 561.276 737.863 556.182 736.598 552.082C735.627 548.929 734.882 548.58 731.477 549.676ZM1229.65 555.16C1228.13 556.536 1228.08 557.048 1229.23 559.349C1230.29 561.468 1231.28 561.906 1234.39 561.63C1237.61 561.344 1238.28 560.832 1238.55 558.463C1238.73 556.909 1238.3 555.186 1237.59 554.634C1235.66 553.126 1231.61 553.394 1229.65 555.16ZM669.468 560.717L674.914 562.009L674.752 567.179C674.626 571.19 675.109 573.029 676.911 575.394C679.257 578.473 679.147 580.455 676.696 579.297C675.962 578.95 674.807 576.22 674.128 573.232C673.313 569.642 672.366 567.797 671.339 567.793C670.483 567.791 668.457 566.792 666.837 565.574C661.755 561.754 659.945 561.474 658.711 564.314C658.083 565.763 657.869 568.598 658.217 570.881C658.7 574.058 659.287 574.899 661.022 574.899C662.355 574.899 663.701 576.013 664.449 577.735C665.486 580.125 666.68 580.703 672.052 581.41C675.557 581.872 679.521 582.947 680.859 583.799C682.198 584.651 684.882 585.716 686.824 586.166C689.472 586.778 690.843 587.998 692.3 591.044C694.472 595.582 694.455 595.602 687.408 596.762C681.149 597.792 677.945 596.607 677.945 593.262C677.945 589.841 675.797 587.628 672.957 588.124C671.299 588.414 670.749 589.268 670.767 591.529L670.79 594.547L667.406 592.476C665.545 591.336 662.817 589.18 661.344 587.682C658.103 584.387 655.543 576.223 657.048 573.977C657.789 572.871 657.536 571.753 656.112 569.835C653.552 566.386 652.584 562.32 654.057 561.199C655.662 559.976 660.845 558.697 662.582 559.096C663.374 559.277 666.473 560.007 669.468 560.717ZM511.555 561.43C510.271 563.012 510.864 567.426 512.625 569.39C516.361 573.557 520.872 570.751 520.3 564.614C520.025 561.651 519.568 561.25 516.116 560.936C513.984 560.743 511.931 560.965 511.555 561.43ZM567.521 566.53C567.521 568.218 570.373 571.349 571.911 571.349C572.734 571.349 573.283 570.165 573.283 568.39C573.283 565.891 572.834 565.431 570.402 565.431C568.818 565.431 567.521 565.925 567.521 566.53ZM1039.94 566.614C1039.94 568.11 1041.9 568.11 1043.78 566.614C1044.91 565.721 1044.64 565.463 1042.58 565.448C1041.13 565.439 1039.94 565.963 1039.94 566.614ZM527.193 570.138C527.193 571.667 531.888 575.425 532.64 574.497C532.963 574.1 532.193 572.714 530.93 571.417C528.381 568.801 527.193 568.394 527.193 570.138ZM983.771 574.671C978.589 576.775 976.801 577.926 978.276 578.208C980.294 578.591 995.774 572.962 995.774 571.843C995.774 570.635 990.855 571.794 983.771 574.671ZM565.97 575.423C564.904 578.847 566.057 581.403 568.847 581.797C572.497 582.313 573.591 580.788 572.382 576.868C571.679 574.589 570.729 573.716 568.955 573.716C567.605 573.716 566.262 574.484 565.97 575.423ZM528.48 577.921C527.785 580.155 529.048 583.355 530.931 584.129C531.766 584.472 532.037 583.441 531.822 580.739C531.481 576.443 529.469 574.745 528.48 577.921ZM967.688 578.914C965.43 581.027 965.529 584.368 967.849 584.368C970.914 584.368 972.729 583.047 972.729 580.817C972.729 579.655 972.045 578.38 971.21 577.985C969.366 577.113 969.71 577.023 967.688 578.914ZM689.468 582.001C689.468 584.806 688.803 584.904 684.594 582.723C681.949 581.352 681.73 580.981 683.283 580.493C687.595 579.14 689.468 579.597 689.468 582.001ZM715.074 580.423C713.194 582.738 716.073 587.919 719.238 587.919C721.458 587.919 722.675 583.666 721.116 581.352C719.928 579.588 716.214 579.016 715.074 580.423ZM543.516 583.767C543.516 587.417 545.079 591.47 546.486 591.47C547.047 591.47 547.341 589.318 547.172 586.45C546.957 582.788 546.423 581.323 545.197 581.036C543.941 580.743 543.516 581.432 543.516 583.767ZM515.745 584.862C510.792 591.36 514.045 601.119 521.889 603.3C526.426 604.561 528.747 603.002 530.67 597.402C532.316 592.605 531.729 588.433 528.875 584.664C525.945 580.796 518.761 580.905 515.745 584.862ZM936.001 590.381C933.057 592.495 934.163 593.987 938.393 593.609C941.363 593.344 942.552 592.685 942.785 591.174C943.027 589.591 942.463 589.111 940.392 589.138C938.901 589.158 936.925 589.717 936.001 590.381ZM791.97 604.584C791.046 605.248 790.289 606.563 790.289 607.508C790.289 608.476 789.388 609.224 788.219 609.224C785.748 609.224 779.727 614.612 779.727 616.824C779.727 621.034 799.561 623.15 804.165 619.431C806.756 617.339 807.482 613.958 805.34 613.958C803.014 613.958 799.655 608.455 800.346 605.774C800.915 603.563 800.599 603.31 797.315 603.341C795.3 603.362 792.893 603.92 791.97 604.584ZM56.6915 609.146C56.6915 610.49 57.0161 611.598 57.4117 611.608C57.8073 611.616 59.142 611.957 60.3768 612.364C62.3222 613.007 62.5785 612.727 62.2972 610.277C61.8536 606.414 56.6915 605.373 56.6915 609.146ZM450.733 625.387C450.262 627.702 450.558 628.949 451.859 630.122C454.037 632.084 454.391 632.09 456.491 630.197C457.863 628.96 457.989 628.093 457.178 625.463C455.794 620.975 451.642 620.925 450.733 625.387ZM505.108 627.161C505.108 629.557 505.001 629.594 503.352 627.753C501.39 625.565 500.307 625.254 500.307 626.88C500.307 628.155 515.147 641.181 516.6 641.181C519.722 641.181 516.228 636.804 509.909 632.801C506.876 630.88 506.089 629.931 507.268 629.617C509.666 628.982 509.457 624.611 507.028 624.611C505.702 624.611 505.108 625.4 505.108 627.161ZM433.27 632.6C433.462 633.849 434.634 634.821 436.222 635.045C439.246 635.476 439.59 634.438 437.173 632.176C434.799 629.955 432.895 630.161 433.27 632.6ZM885.83 634.08C884.819 636.097 886.296 637.63 889.247 637.63C891.431 637.63 892.071 637.094 892.071 635.263C892.071 633.432 891.431 632.896 889.247 632.896C887.694 632.896 886.156 633.429 885.83 634.08ZM446.535 638.814C448.397 640.297 449.416 640.297 449.416 638.814C449.416 638.163 448.443 637.639 447.256 637.648C445.509 637.664 445.371 637.886 446.535 638.814ZM464.256 645.829C464.558 646.433 466.42 647.535 468.394 648.279C472.336 649.766 472.298 649.747 483.983 655.672C488.472 657.948 493.252 660.131 494.605 660.524C495.957 660.915 498.334 662.582 499.886 664.227C503.822 668.399 510.173 668.446 512.367 664.318C513.798 661.627 513.783 661.202 512.149 658.438C509.995 654.79 506.958 654.539 505.272 657.868C504.259 659.867 503.324 660.242 500.48 659.79C496.789 659.204 485.588 654.463 478.281 650.393C469.384 645.439 463.022 643.369 464.256 645.829ZM224.888 651.395C225.164 653.158 226.095 653.609 229.462 653.609C231.787 653.609 233.846 653.033 234.036 652.327C234.227 651.622 233.831 650.955 233.156 650.845C232.481 650.736 230.267 650.318 228.235 649.914C224.984 649.269 224.584 649.445 224.888 651.395ZM1105.24 672.606C1094.94 673.412 1085.54 674.127 1084.35 674.197C1081.89 674.34 1081.37 677.929 1083.5 680.109C1086.42 683.092 1099.94 683.959 1113.19 682.016C1133.75 679.002 1134.57 678.77 1134.22 676.074C1134.05 674.785 1133.21 673.065 1132.35 672.251C1130.61 670.594 1131.03 670.588 1105.24 672.606ZM900.953 676.389C895.485 676.602 891.111 677.28 891.111 677.914C891.111 678.614 899.474 679.057 912.716 679.057C924.598 679.057 934.32 678.603 934.32 678.048C934.32 676.946 920.784 675.374 914.636 675.763C912.524 675.896 906.367 676.178 900.953 676.389ZM890.365 683.267C889.191 684.28 888.23 686.144 888.23 687.409C888.23 688.92 887.572 689.709 886.31 689.709C885.254 689.709 884.39 690.242 884.39 690.893C884.39 691.544 885.434 692.076 886.71 692.076C887.987 692.076 889.21 692.743 889.43 693.556C889.723 694.644 895.277 695.251 910.394 695.846C921.705 696.292 934.255 697.024 938.282 697.472C944.954 698.214 945.787 698.063 947.644 695.774C950.083 692.768 950.23 690.558 948.134 688.413C946.974 687.227 943.89 686.95 935.891 687.315C917.894 688.133 914.98 687.859 906.665 684.573C897.551 680.973 893.406 680.64 890.365 683.267ZM755.216 695.679C754.55 697.007 756.372 700.362 757.759 700.362C758.223 700.362 758.603 699.03 758.603 697.403C758.603 694.397 756.416 693.285 755.216 695.679ZM480.244 697.862C479.288 698.63 479.077 700.259 479.506 703.561C479.937 706.888 479.662 708.966 478.523 710.97C477.007 713.639 477.049 713.869 479.556 716.527C483.121 720.308 487.313 720.179 489.414 716.224C490.833 713.556 490.873 712.812 489.722 710.602C488.991 709.201 488.157 705.658 487.869 702.729C487.386 697.836 487.11 697.378 484.464 697.094C482.879 696.924 480.981 697.27 480.244 697.862ZM501.267 707.337C501.267 708.717 504.072 710.028 505.194 709.172C506.887 707.883 506.04 706.28 503.668 706.28C502.347 706.28 501.267 706.755 501.267 707.337ZM824.857 711.523C824.857 712.731 825.724 713.381 827.337 713.381C830.345 713.381 830.016 710.602 826.942 710.043C825.557 709.792 824.857 710.29 824.857 711.523ZM209.865 717.667C207.296 720.834 208.443 723.396 212.62 723.818C217.105 724.273 218.321 723.035 217.475 718.879C216.975 716.42 216.257 715.748 214.13 715.748C212.641 715.748 210.721 716.612 209.865 717.667ZM1293.92 721.666C1298.21 723.015 1304 723.015 1304 721.666C1304 720.98 1301.27 720.542 1297.52 720.622C1292.51 720.731 1291.69 720.968 1293.92 721.666ZM827.497 722.462C825.385 723.168 825.283 727.941 827.326 730.459C828.156 731.482 829.909 732.319 831.222 732.319C833.436 732.319 833.588 731.955 833.313 727.289C833.008 722.081 831.752 721.038 827.497 722.462ZM715.074 731.925C713.891 733.382 714.419 739.116 715.873 740.604C716.666 741.415 717.314 742.812 717.314 743.708C717.314 744.605 717.962 745.339 718.754 745.339C719.569 745.339 720.194 744.278 720.194 742.893C720.194 741.549 720.677 739.335 721.269 737.974C722.172 735.893 721.981 735.157 720.069 733.344C717.662 731.063 716.126 730.626 715.074 731.925ZM372.119 742.971C371.295 744.616 372.218 746.123 374.505 746.861C376.05 747.358 376.44 746.909 376.44 744.636C376.44 742.606 375.905 741.788 374.577 741.788C373.551 741.788 372.446 742.32 372.119 742.971ZM393.488 748.002C392.836 750.187 393.699 752.44 395.187 752.44C397.143 752.44 397.883 750.196 396.57 748.245C395.146 746.132 394.072 746.046 393.488 748.002ZM85.4977 765.46C85.4977 768.37 85.8655 769.097 87.1781 768.786C88.2382 768.534 88.8584 767.306 88.8584 765.46C88.8584 763.613 88.2382 762.386 87.1781 762.134C85.8655 761.823 85.4977 762.549 85.4977 765.46ZM392.044 792.943C388.784 794.882 389.442 796.234 393.645 796.234C398.337 796.234 400.445 795.277 400.445 793.148C400.445 791.159 395.257 791.034 392.044 792.943ZM734.597 798.009C734.597 801.823 734.826 802.152 737.478 802.152C739.844 802.152 740.359 801.665 740.359 799.429C740.359 796.165 738.692 793.866 736.326 793.866C734.991 793.866 734.597 794.808 734.597 798.009ZM302.504 803.927C302.504 804.913 303.358 805.702 304.425 805.702C305.492 805.702 306.345 804.913 306.345 803.927C306.345 802.941 305.492 802.152 304.425 802.152C303.358 802.152 302.504 802.941 302.504 803.927ZM323 812.263C322.687 813.268 322.722 814.447 323.076 814.885C323.862 815.854 326.732 813.757 327.253 811.832C327.821 809.728 323.658 810.15 323 812.263ZM194.359 826.379C194.032 827.432 194.054 828.65 194.408 829.088C195.221 830.089 198.387 827.707 198.133 826.286C197.787 824.363 194.966 824.433 194.359 826.379ZM647.219 825.74C647.219 826.343 647.897 827.675 648.727 828.699C649.558 829.721 650.638 830.558 651.128 830.558C652.396 830.558 652.233 827.743 650.867 826.06C649.502 824.377 647.219 824.176 647.219 825.74ZM499.795 834.152C498.21 836.312 498.159 837.019 499.302 840.957C500.004 843.375 501.057 845.745 501.643 846.223C503.248 847.533 507.592 847.3 510.344 845.754C513.238 844.129 513.7 838.604 511.295 834.373C509.257 830.787 502.363 830.655 499.795 834.152ZM207.204 835.429C205.752 836.765 204.563 838.878 204.563 840.125C204.563 842.125 205.293 842.394 210.731 842.394C215.966 842.394 217.346 841.93 219.853 839.33C224.625 834.38 223.815 832.919 216.326 832.963C211.321 832.992 209.243 833.554 207.204 835.429ZM558.149 851.468C556.365 852.353 554.96 856.15 555.625 858.288C555.969 859.391 557.344 860.148 559.006 860.148C561.13 860.148 562.034 859.413 562.744 857.112C564.215 852.342 563.893 850.67 561.52 850.773C560.332 850.824 558.814 851.137 558.149 851.468ZM649.619 851.753C644.824 852.454 644.818 852.46 645.09 856.552C645.239 858.806 645.994 862.217 646.77 864.132C647.545 866.047 648.179 869.694 648.179 872.236C648.179 875.017 648.562 876.567 649.139 876.127C649.667 875.724 650.099 874.411 650.099 873.207C650.099 872.003 651.239 868.31 652.633 864.999C654.985 859.412 656.526 850.44 655.061 850.865C654.708 850.968 652.26 851.367 649.619 851.753ZM511.48 859.717C507.423 864.718 508.229 869.903 513.483 872.609L516.823 874.33L512.797 880.259C506.909 888.926 510.349 887.642 517.415 878.534C522.309 872.226 523.352 870.175 523.352 866.858C523.352 857.705 516.471 853.566 511.48 859.717ZM632.041 861.641C632.282 865.748 632.684 866.658 634.256 866.658C635.798 866.658 636.176 865.869 636.176 862.652C636.176 859.547 635.677 858.417 633.961 857.634C631.843 856.668 631.759 856.844 632.041 861.641ZM488.001 870.505C488.218 872.835 488.918 873.867 490.465 874.138C492.303 874.459 492.625 873.974 492.625 870.884C492.625 867.772 492.271 867.25 490.161 867.25C488.039 867.25 487.739 867.702 488.001 870.505ZM533.878 877.357C532.106 879.61 531.065 881.451 531.566 881.448C533.067 881.441 538.715 876.838 538.715 875.623C538.715 872.896 536.863 873.56 533.878 877.357ZM104.877 878.494C103.308 880.122 101.397 881.453 100.632 881.453C99.0126 881.453 96.06 885.145 96.06 887.169C96.06 887.951 97.4581 888.555 99.2719 888.555C102.693 888.555 105.662 885.624 105.662 882.247C105.662 881.096 106.422 880.27 107.48 880.27C109.303 880.27 110.832 877.567 109.756 876.243C108.76 875.014 107.809 875.453 104.877 878.494ZM470.776 882.933C467.577 887.86 468.91 895.656 472.951 895.656C475.961 895.656 480.143 892.446 480.143 890.135C480.143 889.201 479.483 886.866 478.677 884.945C477.575 882.317 476.535 881.453 474.475 881.453C472.968 881.453 471.304 882.12 470.776 882.933ZM772.482 889.442C773.729 895.738 779.907 900.024 780.49 894.998C780.852 891.875 776.604 886.188 773.907 886.188C772.133 886.188 771.929 886.653 772.482 889.442ZM603.346 889.307C602.605 891.69 604.149 894.932 606.273 895.447C607.5 895.745 607.85 894.889 607.85 891.6C607.85 888.138 607.496 887.371 605.9 887.371C604.826 887.371 603.678 888.242 603.346 889.307ZM842.141 888.371C842.141 888.922 843.005 890.336 844.061 891.514C846.174 893.871 846.517 893.185 844.988 889.66C843.985 887.352 842.141 886.518 842.141 888.371ZM523.597 896.265C521.43 898.551 518.009 903.211 515.999 906.621C513.987 910.03 511.362 914.144 510.164 915.766C506.903 920.183 507.544 921.464 511.023 917.479C517.138 910.472 530.063 893.856 530.069 892.993C530.08 890.959 527.288 892.37 523.597 896.265ZM672.751 894.031C672.076 896.198 673.708 899.207 675.559 899.207C677.081 899.207 678.067 896.242 677.333 893.881C676.595 891.513 673.503 891.613 672.751 894.031ZM1048.08 894.525C1047.06 896.557 1049.59 899.207 1052.54 899.207C1055.36 899.207 1055.76 898.476 1054.72 895.162C1054.07 893.052 1049.06 892.573 1048.08 894.525ZM491.694 908.308C485.675 915.917 481.205 922.329 481.759 922.557C482.313 922.785 484.876 920.384 487.456 917.223C500.161 901.651 505.409 894.473 504.087 894.473C503.289 894.473 497.713 900.699 491.694 908.308ZM0.679791 897.629C-0.721151 899.355 0.161282 901.574 2.24781 901.574C4.43228 901.574 6.76078 899.62 6.76078 897.787C6.76078 896.646 1.58623 896.511 0.679791 897.629ZM766.284 902.069C766.284 905.549 767.525 907.492 769.748 907.492C772.487 907.492 772.741 905.084 770.289 902.35C768.136 899.947 766.284 899.818 766.284 902.069ZM29.8057 904.533C29.8057 906.703 30.3175 907.492 31.7262 907.492C33.1348 907.492 33.6466 906.703 33.6466 904.533C33.6466 902.364 33.1348 901.574 31.7262 901.574C30.3175 901.574 29.8057 902.364 29.8057 904.533ZM12.522 906.309C11.2017 906.83 8.71672 907.309 7.00083 907.374C3.85615 907.494 2.45809 909.86 5.53268 909.86C8.4517 909.86 17.3231 906.986 17.3231 906.04C17.3231 904.942 15.7637 905.029 12.522 906.309ZM676.006 913.507C674.528 921.1 675.214 930.466 677.474 933.544C679.682 936.552 680.195 936.506 683.235 933.035C685.321 930.651 685.652 929.457 685.204 925.933C684.909 923.602 684.431 919.833 684.143 917.557C683.626 913.457 680.086 907.492 678.171 907.492C677.624 907.492 676.65 910.199 676.006 913.507ZM126.286 912.679C122.578 913.438 117.393 915.44 114.764 917.128C110.067 920.143 106.45 925.429 107.879 927.19C109.087 928.68 123.541 925.523 127.813 922.838C134.214 918.812 138.919 910.851 134.708 911.171C133.785 911.241 129.994 911.919 126.286 912.679ZM753.802 916.74C753.802 918.169 759.458 924.587 760.061 923.843C760.346 923.491 759.313 921.533 757.765 919.491C754.931 915.75 753.802 914.967 753.802 916.74ZM779.727 916.811C779.727 919.056 783.755 928.891 786.056 932.261C788.329 935.59 794.795 939.026 795.997 937.543C797.129 936.145 789.608 921.03 786.492 918.442C783.256 915.754 779.727 914.903 779.727 916.811ZM1102.36 919.822C1102.36 921.81 1102.88 922.879 1103.86 922.879C1104.86 922.879 1105.27 922.016 1105.06 920.309C1104.61 916.52 1102.36 916.114 1102.36 919.822ZM736.518 924.681C736.518 927.33 742.525 940.7 744.634 942.745C747.175 945.208 753.391 947.453 754.36 946.258C755.423 944.948 750.389 931.478 747.503 927.91C745.003 924.819 743.618 924.063 740.455 924.063C738.289 924.063 736.518 924.341 736.518 924.681ZM1153.25 927.371C1149.47 928.068 1148.59 929.981 1152.04 929.981C1153.7 929.981 1155.34 929.413 1155.69 928.718C1156.52 927.059 1156.12 926.84 1153.25 927.371ZM817.748 931.46C818.126 932.275 818.901 933.677 819.471 934.58C820.04 935.482 820.514 936.814 820.521 937.539C820.529 938.264 822.009 942.205 823.808 946.297C827.802 955.375 832.491 960.755 836.413 960.755C838.906 960.755 839.26 960.333 839.26 957.37C839.26 955.507 838.13 951.912 836.749 949.38C833.494 943.41 824.696 933.411 823.267 934.056C822.656 934.331 821.401 933.526 820.477 932.269C818.609 929.724 816.677 929.152 817.748 931.46ZM402.115 942.348C401.197 943.176 400.445 944.194 400.445 944.61C400.445 946.019 403.083 945.38 404.215 943.698C405.73 941.449 404.202 940.468 402.115 942.348ZM488.156 943.643C487.843 944.648 487.824 945.762 488.113 946.118C489.069 947.296 492.625 945.242 492.625 943.513C492.625 941.231 488.872 941.341 488.156 943.643ZM182.479 946.465C182.479 949.352 182.888 950.102 184.462 950.102C186.059 950.102 186.388 949.469 186.143 946.858C185.96 944.9 185.172 943.456 184.159 943.22C182.854 942.914 182.479 943.64 182.479 946.465ZM676.186 946.531C674.211 952.03 675.004 954.188 679.153 954.612C682.543 954.959 682.746 954.786 682.746 951.564C682.746 949.523 681.851 947.111 680.524 945.574C677.707 942.312 677.7 942.313 676.186 946.531ZM895.912 945.875C895.912 949.32 898.421 952.731 900.579 952.218C902.909 951.666 903.008 948.197 900.772 945.44C898.072 942.112 895.912 942.305 895.912 945.875ZM785.488 963.695C785.488 967.357 793.118 987.064 796.513 992.171C799.985 997.393 805.976 1002.18 809.04 1002.18C811.057 1002.18 810.462 999.615 805.534 987.052C800.974 975.429 791.437 961.938 787.778 961.938C786.394 961.938 785.488 962.633 785.488 963.695ZM425.946 976.405C423.879 980.04 424.067 981.464 426.813 983.006C428.909 984.184 429.396 983.951 431.134 980.942C433.959 976.052 433.683 973.774 430.267 973.774C428.435 973.774 426.915 974.7 425.946 976.405ZM460.619 975.747C460.266 976.181 459.978 977.512 459.978 978.706C459.978 980.232 460.691 980.876 462.379 980.876C464.936 980.876 465.532 978.726 463.627 976.378C462.322 974.77 461.544 974.606 460.619 975.747ZM484.334 976.342C481.119 978.26 479.607 982.629 480.924 986.191C483.613 993.465 493.586 986.42 493.586 977.248C493.586 975.377 492.928 974.972 489.985 975.038C488.005 975.082 485.461 975.669 484.334 976.342ZM1164.2 982.507C1163.42 985.003 1164.52 986.794 1166.81 986.794C1168.26 986.794 1168.67 986.135 1168.44 984.143C1168.08 981.049 1165.02 979.869 1164.2 982.507ZM202.231 992.204C199.951 995.017 200.577 1001 203.152 1001C205.232 1001 210.325 995.04 210.325 992.607C210.325 990.819 209.633 990.345 207.032 990.345C205.222 990.345 203.062 991.182 202.231 992.204ZM1180.37 994.786C1175.49 996.452 1171.49 998.307 1171.49 998.908C1171.49 1000.17 1175.05 999.389 1184.21 996.113C1187.78 994.838 1190.7 993.285 1190.7 992.662C1190.7 991.231 1190.95 991.179 1180.37 994.786ZM402.347 1021.74C401.678 1022.73 401.399 1023.87 401.725 1024.28C402.424 1025.13 405.247 1022.49 405.247 1020.97C405.247 1019.34 403.681 1019.76 402.347 1021.74ZM500.307 1026.3C500.307 1031.37 502.22 1033.4 506.029 1032.37C509.324 1031.48 509.791 1029.05 507.454 1024.93C506.485 1023.23 504.965 1022.3 503.133 1022.3C500.563 1022.3 500.307 1022.66 500.307 1026.3ZM747.257 1032.52C747.424 1034.24 748.533 1036.44 749.721 1037.4C751.769 1039.07 751.881 1039.01 751.881 1036.14C751.881 1033.11 749.694 1029.4 747.908 1029.4C747.383 1029.4 747.09 1030.81 747.257 1032.52ZM389.2 1038.55C383.591 1045.47 382.002 1048.05 382.912 1048.74C383.372 1049.09 386.239 1046.27 389.284 1042.47C392.405 1038.58 394.388 1035.24 393.828 1034.81C393.282 1034.39 391.2 1036.07 389.2 1038.55ZM489.985 1034.92C489.325 1035.25 488.784 1036.81 488.784 1038.38C488.784 1042 492.089 1042.32 493.596 1038.85C495.228 1035.09 493.477 1033.19 489.985 1034.92ZM782.776 1038.46C782.973 1040.57 783.735 1041.96 784.84 1042.22C786.256 1042.55 786.532 1041.99 786.281 1039.28C786.084 1037.17 785.321 1035.78 784.216 1035.52C782.801 1035.19 782.524 1035.76 782.776 1038.46ZM831.578 1037.63C831.578 1042.4 836.894 1048.74 838.414 1045.79C839.573 1043.53 839.494 1043.11 837.269 1039.62C835.356 1036.62 831.578 1035.3 831.578 1037.63ZM955.445 1042.61C955.445 1046.35 967.672 1062.84 972.93 1066.19C977.778 1069.28 978.491 1069.08 978.486 1064.62C978.48 1058.59 975.42 1053.84 967.331 1047.29C960.204 1041.52 955.445 1039.65 955.445 1042.61ZM1132.84 1047.25C1130.48 1048.95 1130.75 1050.71 1133.37 1050.71C1135.56 1050.71 1137.88 1048.75 1137.88 1046.92C1137.88 1045.6 1134.86 1045.8 1132.84 1047.25ZM897.833 1060.08C897.833 1062.78 899.15 1064.91 900.816 1064.91C903.111 1064.91 903.133 1063.47 900.877 1060.95C898.915 1058.76 897.833 1058.45 897.833 1060.08ZM390.843 1074.25C390.843 1077.97 393.218 1080.08 394.124 1077.17C395.279 1073.46 394.714 1070.83 392.764 1070.83C391.286 1070.83 390.843 1071.62 390.843 1074.25ZM806.613 1091.88C806.613 1092.39 807.459 1094.12 808.492 1095.72C816.207 1107.71 820.937 1116.61 820.498 1118.32C819.677 1121.51 822.037 1126.25 825.1 1127.57C828.681 1129.11 829.658 1128.38 829.658 1124.18C829.658 1120.08 826.322 1114.62 823.813 1114.62C822.788 1114.62 821.198 1113.14 820.281 1111.32C819.365 1109.51 816.239 1104.21 813.334 1099.55C808.419 1091.67 806.613 1089.61 806.613 1091.88ZM1095.68 1126.16C1095.73 1127.04 1102.33 1133.84 1110.91 1141.85C1113.57 1144.33 1115.23 1146.75 1115.05 1147.9C1114.54 1151.13 1119.28 1156.83 1123.58 1158.18L1127.55 1159.42L1126.99 1155.07C1126.37 1150.19 1121.78 1144.5 1117.62 1143.44C1115.49 1142.9 1107.64 1135.94 1099.71 1127.56C1097.5 1125.23 1095.6 1124.57 1095.68 1126.16ZM373.617 1142.86C371.991 1147.7 372.622 1151.83 375.055 1152.25C377.532 1152.69 379.601 1148.29 379.16 1143.52C378.7 1138.54 375.207 1138.13 373.617 1142.86ZM374.383 1191.04C372.017 1192.57 365.473 1202.54 358.402 1215.38C354.685 1222.13 346.446 1242.35 344.474 1249.56C343.671 1252.49 342.866 1257.27 342.684 1260.18C342.268 1266.82 344.451 1267.88 348.406 1262.96C352.988 1257.25 377.071 1199.08 376.152 1195.93C375.926 1195.15 376.148 1193.54 376.648 1192.34C377.881 1189.39 377.377 1189.1 374.383 1191.04ZM491.665 1199.84C491.665 1201.16 492.306 1202.21 493.105 1202.21C493.905 1202.21 494.546 1201.16 494.546 1199.84C494.546 1198.53 493.905 1197.48 493.105 1197.48C492.306 1197.48 491.665 1198.53 491.665 1199.84ZM351.475 1208.72C351.475 1210.89 351.987 1211.68 353.395 1211.68C354.804 1211.68 355.316 1210.89 355.316 1208.72C355.316 1206.55 354.804 1205.76 353.395 1205.76C351.987 1205.76 351.475 1206.55 351.475 1208.72ZM345.714 1211.77C345.714 1214.59 346.089 1215.32 347.394 1215.01C348.407 1214.77 349.195 1213.33 349.378 1211.37C349.623 1208.76 349.294 1208.13 347.698 1208.13C346.123 1208.13 345.714 1208.88 345.714 1211.77ZM295.783 1215.23C295.783 1216.81 296.423 1217.6 297.703 1217.6C298.983 1217.6 299.624 1216.81 299.624 1215.23C299.624 1213.65 298.983 1212.86 297.703 1212.86C296.423 1212.86 295.783 1213.65 295.783 1215.23ZM848.862 1217.92C848.862 1220.61 851.796 1224.7 853.718 1224.7C855.864 1224.7 856.334 1220.18 854.431 1217.83C852.9 1215.95 848.862 1216.01 848.862 1217.92ZM324.929 1229.73C322.869 1232.5 319.954 1236.76 318.452 1239.2C316.949 1241.64 314.924 1243.64 313.95 1243.64C311.016 1243.64 308.266 1248.32 308.266 1253.33C308.266 1256.65 308.666 1257.84 309.78 1257.84C312.205 1257.84 316.664 1251.51 317.776 1246.49C318.341 1243.94 320.002 1240.26 321.469 1238.31C326.111 1232.13 330.546 1224.7 329.593 1224.7C329.088 1224.7 326.99 1226.96 324.929 1229.73ZM246.368 1245.02C241.417 1251.81 239.513 1255.47 240.937 1255.47C242.01 1255.47 252.574 1241.32 252.574 1239.88C252.574 1237.61 250.559 1239.27 246.368 1245.02ZM455.807 1248.61C455.503 1250.05 455.476 1251.5 455.748 1251.84C456.369 1252.6 458.023 1249.46 458.043 1247.48C458.067 1244.99 456.396 1245.84 455.807 1248.61ZM311.866 1264.31C310.943 1265.88 310.186 1267.94 310.186 1268.88C310.186 1271.22 313.19 1272.49 314.223 1270.6C316.403 1266.61 317.012 1264.62 316.531 1263.07C315.751 1260.57 313.764 1261.1 311.866 1264.31ZM798.691 1292.98C795.33 1294.06 798.163 1304 801.832 1304C803.684 1304 804.874 1298.83 803.813 1295.39C802.841 1292.23 802.096 1291.88 798.691 1292.98Z" fill="black"/>
</svg>
