<svg xmlns="http://www.w3.org/2000/svg" version="1.1" xmlns:xlink="http://www.w3.org/1999/xlink" xmlns:svgjs="http://svgjs.dev/svgjs" viewBox="0 -60 600 600">
<path stroke="#FF0066" d="M18.356643676757812,238.1118927001953C21.3286714553833,227.97203318277994,30.244754791259766,216.2587407430013,38.286712646484375,206.6433563232422C46.328670501708984,197.02797190348306,56.64335632324219,186.88811747233072,66.60839080810547,180.41958618164062C76.57342529296875,173.95105489095053,85.48950576782227,170.8041966756185,98.07691955566406,167.83216857910156C110.66433334350586,164.86014048258463,126.92308298746745,163.2867177327474,142.13287353515625,162.58741760253906C157.34266408284506,161.88811747233072,172.20279693603516,162.93706766764322,189.33566284179688,163.63636779785156C206.4685287475586,164.3356679280599,226.39860026041666,165.73426818847656,244.93006896972656,166.78321838378906C263.46153767903644,167.83216857910156,280.7692286173503,169.05594380696616,300.52447509765625,169.93006896972656C320.2797215779622,170.80419413248697,344.9300791422526,171.85314432779947,363.4615478515625,172.02796936035156C381.9930165608724,172.20279439290366,395.27972412109375,171.6783192952474,411.7132873535156,170.97901916503906C428.1468505859375,170.27971903483072,446.6783142089844,169.23076883951822,462.06292724609375,167.83216857910156C477.4475402832031,166.4335683186849,491.25872802734375,162.58741760253906,504.0209655761719,162.58741760253906C516.783203125,162.58741760253906,529.0209706624349,164.68531545003256,538.6363525390625,167.83216857910156C548.2517344156901,170.97902170817056,555.7691955566406,175.00000508626303,561.7132568359375,181.46853637695312C567.6573181152344,187.93706766764322,572.0279846191406,197.5524470011393,574.3007202148438,206.6433563232422C576.5734558105469,215.73426564534506,576.3986206054688,226.22378285725912,575.3496704101562,236.0139923095703C574.3007202148438,245.8042017618815,572.9021301269531,257.34265391031903,568.0070190429688,265.3846130371094C563.1119079589844,273.4265721638997,556.1188659667969,279.19581604003906,545.97900390625,284.2657470703125C535.8391418457031,289.33567810058594,519.5804290771484,293.88112386067706,507.1678466796875,295.80419921875C494.75526428222656,297.72727457682294,484.79022725423175,295.80419921875,471.5035095214844,295.80419921875C458.216791788737,295.80419921875,442.30768330891925,295.97902425130206,427.4475402832031,295.80419921875C412.587397257487,295.62937418619794,398.07691446940106,294.4055989583333,382.3426513671875,294.7552490234375C366.60838826497394,295.1048990885417,349.47552490234375,296.67832438151044,333.0419616699219,297.902099609375C316.6083984375,299.12587483723956,299.4755376180013,302.27272542317706,283.74127197265625,302.097900390625C268.0070063273112,301.92307535807294,254.19581095377603,299.3006998697917,238.63636779785156,296.8531494140625C223.0769246419271,294.4055989583333,208.91608174641928,288.8111979166667,190.38461303710938,287.41259765625C171.85314432779947,286.0139973958333,144.58042271931967,287.41259765625,127.44755554199219,288.4615478515625C110.31468836466472,289.510498046875,101.74824968973796,293.706298828125,87.58740997314453,293.706298828125C73.4265702565511,293.706298828125,53.671327908833824,292.8321787516276,42.48251724243164,288.4615478515625C31.293706576029457,284.0909169514974,24.47552490234375,275.8741226196289,20.454545974731445,267.4825134277344C16.43356704711914,259.09090423583984,15.384615898132324,248.2517522176107,18.356643676757812,238.1118927001953C21.3286714553833,227.97203318277994,30.244754791259766,216.2587407430013,38.286712646484375,206.6433563232422">
</path>
</svg>