<svg width="16" height="16" viewBox="0 0 16 16" fill="none" xmlns="http://www.w3.org/2000/svg">
<path d="M8.71652 2.04262C8.65001 1.90992 8.54789 1.79833 8.42158 1.72035C8.29528 1.64237 8.14976 1.60107 8.00132 1.60107C7.85288 1.60107 7.70737 1.64237 7.58106 1.72035C7.45476 1.79833 7.35264 1.90992 7.28612 2.04262L1.68612 13.2426C1.61664 13.3815 1.58907 13.5376 1.60678 13.6919C1.6245 13.8461 1.68673 13.9919 1.78588 14.1114C1.88503 14.2309 2.01682 14.319 2.16517 14.3649C2.31352 14.4108 2.47201 14.4125 2.62132 14.3698L6.62132 13.2266C6.7885 13.1788 6.93555 13.0778 7.04021 12.939C7.14486 12.8001 7.20142 12.6309 7.20132 12.457V8.80022C7.20132 8.58805 7.28561 8.38456 7.43564 8.23454C7.58567 8.08451 7.78915 8.00022 8.00132 8.00022C8.2135 8.00022 8.41698 8.08451 8.56701 8.23454C8.71704 8.38456 8.80132 8.58805 8.80132 8.80022V12.457C8.80123 12.6309 8.85779 12.8001 8.96244 12.939C9.0671 13.0778 9.21414 13.1788 9.38132 13.2266L13.3813 14.369C13.5306 14.4118 13.6891 14.4101 13.8374 14.3644C13.9858 14.3186 14.1176 14.2306 14.2168 14.1112C14.3161 13.9918 14.3784 13.8461 14.3963 13.6919C14.4141 13.5376 14.3867 13.3815 14.3173 13.2426L8.71652 2.04262Z" fill="white"/>
</svg>
