<svg width="16" height="16" viewBox="0 0 16 16" fill="none" xmlns="http://www.w3.org/2000/svg">
<g clip-path="url(#clip0_475_11)">
<path d="M8 0.5C3.8645 0.5 0.5 3.8645 0.5 8C0.5 12.1355 3.8645 15.5 8 15.5C12.1355 15.5 15.5 12.1355 15.5 8C15.5 3.8645 12.1355 0.5 8 0.5ZM11.1565 11.318C11.344 10.4665 11.4575 9.518 11.4865 8.5H14.4795C14.383 9.7575 13.927 10.9145 13.2145 11.8705C12.54 11.64 11.8525 11.456 11.1565 11.318ZM2.7855 11.8705C2.073 10.9145 1.617 9.7575 1.5205 8.5H4.5135C4.5425 9.518 4.656 10.4665 4.8435 11.318C4.148 11.456 3.46 11.6405 2.7855 11.8705ZM4.843 4.685C4.656 5.5355 4.5425 6.4835 4.5135 7.5H1.5205C1.617 6.2425 2.0725 5.0855 2.7855 4.1295C3.461 4.3605 4.1475 4.546 4.843 4.685ZM5.8295 4.854C6.546 4.951 7.2705 5 8 5C8.7295 5 9.454 4.951 10.1705 4.854C10.346 5.6335 10.4595 6.5255 10.4895 7.5H5.5105C5.5405 6.5255 5.654 5.6335 5.8295 4.854ZM5.5105 8.5H10.489C10.459 9.4765 10.3455 10.3695 10.1695 11.15C8.731 10.956 7.2695 10.9565 5.8305 11.15C5.6545 10.3695 5.5405 9.476 5.511 8.5H5.5105ZM11.486 7.5C11.4575 6.4835 11.344 5.5355 11.1565 4.685C11.852 4.546 12.539 4.361 13.214 4.13C13.9265 5.086 14.3825 6.243 14.479 7.5H11.486ZM12.49 3.3145C11.968 3.4765 11.4385 3.6095 10.9035 3.713C10.671 2.976 10.379 2.339 10.038 1.8325C10.9655 2.14 11.7995 2.6535 12.49 3.3145ZM7.9995 1.5C8.681 1.5 9.406 2.39 9.899 3.8745C8.6385 4.033 7.361 4.033 6.1 3.8745C6.593 2.39 7.318 1.5 7.9995 1.5ZM5.095 3.713C4.5605 3.609 4.031 3.4765 3.5085 3.3145C4.199 2.6535 5.0325 2.14 5.96 1.8325C5.619 2.339 5.3275 2.976 5.095 3.713ZM3.509 12.686C4.031 12.524 4.5605 12.3915 5.095 12.2875C5.327 13.0245 5.6195 13.661 5.96 14.1675C5.0325 13.86 4.1995 13.3465 3.509 12.686ZM7.9995 14.5C7.318 14.5 6.593 13.61 6.1 12.126C7.361 11.9675 8.6385 11.9675 9.899 12.126C9.406 13.6105 8.681 14.5 7.9995 14.5ZM10.904 12.287C11.4385 12.391 11.968 12.524 12.4905 12.6855C11.8 13.3465 10.9665 13.86 10.039 14.1675C10.38 13.661 10.6715 13.024 10.904 12.287Z" fill="white"/>
</g>
<defs>
<clipPath id="clip0_475_11">
<rect width="16" height="16" fill="white"/>
</clipPath>
</defs>
</svg>
