<?xml version="1.0" encoding="utf-8"?>
<svg width="16" height="16" viewBox="0 0 16 16" fill="none" xmlns="http://www.w3.org/2000/svg">
<path d="M12.6654 2.66675H3.33203C2.8016 2.66675 2.29289 2.87746 1.91782 3.25253C1.54274 3.62761 1.33203 4.13632 1.33203 4.66675V11.3334C1.33203 11.8638 1.54274 12.3726 1.91782 12.7476C2.29289 13.1227 2.8016 13.3334 3.33203 13.3334H12.6654C13.1958 13.3334 13.7045 13.1227 14.0796 12.7476C14.4547 12.3726 14.6654 11.8638 14.6654 11.3334V4.66675C14.6654 4.13632 14.4547 3.62761 14.0796 3.25253C13.7045 2.87746 13.1958 2.66675 12.6654 2.66675ZM12.2187 4.00008L7.9987 7.16675L3.7787 4.00008H12.2187ZM12.6654 12.0001H3.33203C3.15522 12.0001 2.98565 11.9298 2.86063 11.8048C2.7356 11.6798 2.66536 11.5102 2.66536 11.3334V4.83341L7.5987 8.53342C7.71409 8.61996 7.85445 8.66675 7.9987 8.66675C8.14294 8.66675 8.2833 8.61996 8.3987 8.53342L13.332 4.83341V11.3334C13.332 11.5102 13.2618 11.6798 13.1368 11.8048C13.0117 11.9298 12.8422 12.0001 12.6654 12.0001Z" style="fill: rgb(255, 255, 255);"/>
</svg>
