<svg width="33" height="16" viewBox="0 0 33 16" fill="none" xmlns="http://www.w3.org/2000/svg">
<g clip-path="url(#clip0_402_1344)">
<path d="M3.42074 0V15.7962H0V0H3.42074ZM15.159 0V15.7962H12.1764V5.13527L10.9715 15.7941H8.84004L7.58488 5.36479L7.5741 15.7941H4.57894V0H9.01063C9.14531 0.960987 9.27819 2.08071 9.42363 3.37632L9.91206 7.38973L10.7021 0H15.159ZM20.5047 2.85293C20.5723 2.89728 20.6305 2.95962 20.6747 3.03513C20.7189 3.11064 20.748 3.19729 20.7597 3.28838C20.8099 3.49216 20.8225 3.95549 20.8225 4.66979V10.7939C20.8225 11.8407 20.7597 12.48 20.6501 12.7138C20.5424 12.9605 20.2371 13.0784 19.7487 13.0784V2.70278C20.115 2.70278 20.37 2.74568 20.5047 2.84864V2.85293ZM20.4688 15.7962C21.284 15.7962 21.9053 15.7383 22.3075 15.6375C22.7205 15.5345 23.0617 15.3458 23.331 15.069C23.6223 14.7819 23.8267 14.3886 23.9128 13.9493C24.0224 13.4688 24.096 12.5229 24.096 11.1136V5.57072C24.096 4.07347 24.0475 3.06958 23.9631 2.5612C23.8899 2.04612 23.6949 1.5668 23.4011 1.17978C23.0976 0.757205 22.6469 0.465477 22.0633 0.276712C21.4887 0.102962 20.5298 0 18.885 0H16.328V15.7962H20.4688ZM29.6985 11.9716C29.6985 12.7288 29.6625 13.2071 29.5997 13.4109C29.5404 13.6147 29.2585 13.7155 29.052 13.7155C28.8581 13.7155 28.7108 13.6147 28.6498 13.4259C28.578 13.2372 28.5421 12.7867 28.5421 12.0896V7.91312C28.5421 7.19882 28.578 6.74836 28.639 6.57461C28.7001 6.403 28.833 6.31291 29.0287 6.31291C29.2352 6.31291 29.5135 6.40086 29.5871 6.61751C29.6608 6.82129 29.6967 7.25888 29.6967 7.91312L29.6985 11.9716ZM25.2542 0.00214257V15.7962H28.3338L28.5403 14.7923C28.8204 15.1999 29.1256 15.5066 29.4668 15.7104C29.7936 15.8992 30.2928 16 30.6843 16C31.2302 16 31.6952 15.8391 32.0849 15.4916C32.4449 15.2044 32.7112 14.778 32.8391 14.2839C32.936 13.8185 32.9971 13.1192 32.9971 12.1732V7.73937C33.0081 7.11783 32.9877 6.49607 32.936 5.87746C32.8918 5.55371 32.7875 5.24588 32.6308 4.97654C32.4342 4.65973 32.1691 4.41281 31.864 4.26223C31.0839 3.92667 30.2288 3.93657 29.4543 4.29012C29.1046 4.5002 28.7938 4.79197 28.5403 5.14814V0L25.2542 0.00214257Z" fill="white"/>
</g>
<defs>
<clipPath id="clip0_402_1344">
<rect width="33" height="16" fill="white"/>
</clipPath>
</defs>
</svg>
